<?xml version="1.0" encoding="utf-8"?>
<!-- Generator: Adobe Illustrator 15.1.0, SVG Export Plug-In . SVG Version: 6.00 Build 0)  -->
<!DOCTYPE svg PUBLIC "-//W3C//DTD SVG 1.1//EN" "http://www.w3.org/Graphics/SVG/1.1/DTD/svg11.dtd">
<svg version="1.1" id="Layer_1" xmlns="http://www.w3.org/2000/svg" xmlns:xlink="http://www.w3.org/1999/xlink" x="0px" y="0px"
	 width="502.5px" height="71.333px" viewBox="0 0 502.5 71.333" enable-background="new 0 0 502.5 71.333" xml:space="preserve">
<g>
	<g>
		<g>
			<g>
				<g enable-background="new    ">
					<g>
						<path fill="#7F3F98" d="M95.044,26.923c-0.015,7.808,4.535,14.131,10.584,14.721c-0.543,0.437-1.086,0.874-1.629,1.311
							c-6.05-0.59-10.6-6.914-10.585-14.721C93.957,27.796,94.5,27.36,95.044,26.923z"/>
					</g>
					<g>
						<path fill="#7F3F98" d="M105.628,41.644c0.935,0.091,1.834,0.031,2.685-0.165c-0.543,0.437-1.086,0.874-1.63,1.311
							c-0.851,0.196-1.75,0.256-2.685,0.165c0.271-0.219,0.543-0.437,0.815-0.655c0.032-0.026,0.075-0.06,0.106-0.086
							c0.064-0.051,0.148-0.119,0.212-0.17c0.062-0.049,0.145-0.116,0.206-0.166c0.03-0.024,0.07-0.056,0.1-0.08
							C105.495,41.751,105.559,41.665,105.628,41.644z"/>
					</g>
					<g>
						<path fill="#7F3F98" d="M108.313,41.479c1.214-0.28,2.332-0.837,3.319-1.631l-1.629,1.31
							c-0.987,0.793-2.105,1.351-3.319,1.631c0.271-0.218,0.543-0.437,0.815-0.655c0.032-0.025,0.075-0.06,0.107-0.086
							c0.032-0.025,0.074-0.06,0.106-0.085c0.063-0.05,0.146-0.118,0.209-0.168c0.061-0.048,0.141-0.113,0.202-0.162
							c0.029-0.023,0.068-0.055,0.097-0.078C108.248,41.531,108.281,41.495,108.313,41.479z"/>
					</g>
					<g>
						<path d="M111.318,39.45l-1.63,1.31c-1.608,1.293-3.564,1.925-5.688,1.718l1.629-1.31
							C107.754,41.375,109.709,40.743,111.318,39.45z"/>
					</g>
					<g>
						<path d="M93.597,14.812l1.63-1.31c-3.461,2.782-5.439,7.335-5.45,13.194c-0.019,10.081,6.435,17.757,15.7,18.661
							c3.623,0.353,7.379-0.545,10.315-2.906c-0.543,0.437-1.086,0.874-1.63,1.311c-2.937,2.36-6.692,3.258-10.315,2.905
							c-9.266-0.903-15.719-8.58-15.7-18.661C88.158,22.147,90.136,17.594,93.597,14.812z"/>
					</g>
					<g>
						<path fill="#7F3F98" d="M99.316,15.893c-2.907,2.336-4.265,6.63-4.272,11.03c-0.543,0.437-1.087,0.874-1.63,1.311
							c0.008-4.4,1.366-8.693,4.272-11.03C98.175,16.811,98.827,16.286,99.316,15.893z"/>
					</g>
					<g>
						<path d="M98.033,17.605l1.63-1.31c-2.823,2.269-4.135,6.468-4.143,10.675c-0.014,7.531,4.239,13.626,10.109,14.198L104,42.478
							c-5.871-0.572-10.124-6.667-10.109-14.198C93.898,24.073,95.21,19.874,98.033,17.605z"/>
					</g>
					<g>
						<path d="M97.687,17.203l1.63-1.31c1.639-1.318,3.771-2.013,6.431-1.753l-1.629,1.31
							C101.458,15.19,99.326,15.886,97.687,17.203z"/>
					</g>
					<g>
						<path fill="#7F3F98" d="M93.597,14.812c0.543-0.437,1.086-0.874,1.63-1.31c2.893-2.326,6.823-3.415,11.506-2.994l-1.629,1.311
							C100.42,11.397,96.49,12.485,93.597,14.812z"/>
					</g>
					<g>
						<path d="M93.228,14.426l1.63-1.31c3.029-2.435,7.129-3.514,11.876-3.083l-1.629,1.31
							C100.356,10.912,96.257,11.991,93.228,14.426z"/>
					</g>
					<g>
						<path d="M111.633,39.848l-1.63,1.31c2.736-2.2,4.47-6.213,4.479-11.147c0.012-6.735-3.54-13.896-10.364-14.561l1.629-1.31
							c6.824,0.665,10.376,7.825,10.364,14.561C116.103,33.635,114.369,37.647,111.633,39.848z"/>
					</g>
					<g>
						<path d="M104.118,15.45c6.824,0.665,10.376,7.825,10.364,14.561c-0.015,7.962-4.519,13.525-10.483,12.944
							c-6.05-0.59-10.6-6.914-10.585-14.721C93.427,21.352,96.741,14.73,104.118,15.45z M104,42.478
							c5.581,0.544,10-4.706,10.014-12.513c0.011-5.828-2.911-13.351-9.896-14.031c-7.062-0.688-10.214,5.818-10.227,12.346
							C93.876,35.811,98.129,41.906,104,42.478"/>
					</g>
					<g>
						<polygon fill="#7F3F98" points="113.348,17.153 114.978,15.843 115.182,16.01 113.552,17.32 						"/>
					</g>
					<g>
						<polygon fill="#7F3F98" points="113.349,16.902 114.979,15.592 114.978,15.843 113.348,17.153 						"/>
					</g>
					<g>
						<polygon fill="#7F3F98" points="113.349,16.617 114.979,15.307 114.979,15.592 113.349,16.902 						"/>
					</g>
					<g>
						<polygon fill="#7F3F98" points="113.35,16.116 114.98,14.806 114.979,15.307 113.349,16.617 						"/>
					</g>
					<g>
						<polygon points="113.826,16.664 115.455,15.354 115.455,15.639 113.825,16.949 						"/>
					</g>
					<g>
						<polygon points="113.35,16.116 114.98,14.806 115.473,14.879 113.844,16.189 						"/>
					</g>
					<g>
						<path fill="#7F3F98" d="M115.792,42.451c-0.543,0.437-1.087,0.873-1.63,1.31c3.208-2.579,5.438-6.904,5.45-13.25
							c0.01-5.162-2.313-10.222-6.06-13.19l1.629-1.31c3.748,2.968,6.07,8.029,6.061,13.19C121.23,35.547,119,39.872,115.792,42.451
							z"/>
					</g>
					<g>
						<path d="M116.133,42.841l-1.629,1.31c3.277-2.635,5.573-7.052,5.585-13.594c0.009-5.188-2.287-10.453-6.264-13.608l1.629-1.31
							c3.977,3.155,6.273,8.42,6.264,13.608C121.706,35.789,119.411,40.206,116.133,42.841z"/>
					</g>
					<g>
						<polygon fill="#7F3F98" points="122.418,13.506 124.048,12.196 123.879,15.976 122.25,17.286 						"/>
					</g>
					<g>
						<path d="M113.844,16.189l1.629-1.31c4.518,0.631,6.772,0.929,8.406,1.096l-1.63,1.31
							C120.616,17.118,118.361,16.82,113.844,16.189z"/>
					</g>
					<g>
						<path fill="#7F3F98" d="M113.349,16.617l0,0.285l0,0.251l0.204,0.167c3.748,2.968,6.07,8.029,6.06,13.19
							c-0.022,12.156-8.184,16.895-15.765,16.156c-9.266-0.903-15.719-8.58-15.7-18.661c0.02-10.755,6.669-17.112,16.957-16.187
							l17.315,1.688l-0.169,3.78c-1.633-0.167-3.888-0.465-8.406-1.096l-0.494-0.074L113.349,16.617z M114.482,30.01
							c0.012-6.735-3.54-13.896-10.364-14.561c-7.377-0.719-10.691,5.902-10.704,12.784c-0.015,7.807,4.535,14.131,10.585,14.721
							C109.963,43.535,114.467,37.973,114.482,30.01"/>
					</g>
					<g>
						<path d="M122.7,17.814c-1.676-0.164-3.914-0.451-8.874-1.15l0,0.285c3.977,3.155,6.273,8.42,6.264,13.608
							c-0.023,12.632-8.559,17.343-16.243,16.594c-9.155-0.892-16.196-8.333-16.176-19.191c0.021-11.499,7.232-17.542,17.435-16.616
							l17.808,1.736L122.7,17.814z M113.552,17.32l-0.204-0.167l0-0.251l0-0.285l0.001-0.501l0.494,0.074
							c4.518,0.631,6.772,0.929,8.406,1.096l0.169-3.78l-17.315-1.688c-10.287-0.925-16.937,5.432-16.957,16.187
							c-0.019,10.081,6.435,17.757,15.7,18.661c7.581,0.739,15.743-4,15.765-16.156C119.622,25.349,117.3,20.288,113.552,17.32"/>
					</g>
					<g>
						<polygon points="122.913,13.079 124.542,11.769 124.33,16.504 122.7,17.814 						"/>
					</g>
					<g>
						<polygon fill="#7F3F98" points="105.104,11.818 106.733,10.508 124.048,12.196 122.418,13.506 						"/>
					</g>
					<g>
						<polygon points="105.104,11.343 106.734,10.033 124.542,11.769 122.913,13.079 						"/>
					</g>
				</g>
			</g>
		</g>
		<g>
			<g>
				<g enable-background="new    ">
					<g>
						<polygon points="64.665,54.883 66.294,53.573 65.813,56.535 64.183,57.845 						"/>
					</g>
					<g>
						<polygon points="46.069,28.373 47.698,27.063 48.521,28.708 46.891,30.018 						"/>
					</g>
					<g>
						<polygon points="44.785,27.833 46.415,26.522 47.283,26.166 45.653,27.477 						"/>
					</g>
					<g>
						<polygon points="51.72,28.258 53.35,26.948 65.359,53.334 63.729,54.644 						"/>
					</g>
					<g>
						<polygon points="46.891,30.018 48.521,28.708 53.35,26.948 51.72,28.258 						"/>
					</g>
					<g>
						<polygon fill="#8DC63F" points="46.069,28.373 47.698,27.063 55.022,24.05 53.393,25.36 						"/>
					</g>
					<g>
						<polygon fill="#8DC63F" points="53.393,25.36 55.022,24.05 64.829,45.353 63.199,46.663 						"/>
					</g>
					<g>
						<polygon points="45.653,27.477 47.283,26.166 54.599,23.144 52.969,24.454 						"/>
					</g>
					<g>
						<polygon points="54.245,25.019 55.875,23.709 64.367,42.169 62.737,43.479 						"/>
					</g>
					<g>
						<polygon points="52.969,24.454 54.599,23.144 55.451,22.794 53.821,24.104 						"/>
					</g>
					<g>
						<polygon points="53.821,24.104 55.451,22.794 55.875,23.709 54.245,25.019 						"/>
					</g>
					<g>
						<path fill="#8DC63F" d="M81.008,39.891c-1.015,1.372-1.604,2.611-1.768,3.737l-1.63,1.31c0.164-1.125,0.753-2.365,1.769-3.737
							c0.491-0.659,1.244-1.396,2.258-2.211l1.629-1.311C82.252,38.494,81.5,39.231,81.008,39.891z"/>
					</g>
					<g>
						<polygon fill="#8DC63F" points="77.61,44.938 79.24,43.627 91.977,44.869 90.348,46.179 						"/>
					</g>
					<g>
						<path d="M82.267,39.763l1.629-1.31c-0.954,0.767-1.66,1.457-2.115,2.067c-0.605,0.806-1.041,1.567-1.314,2.259l-1.63,1.31
							c0.274-0.691,0.709-1.453,1.314-2.258C80.606,41.22,81.313,40.529,82.267,39.763z"/>
					</g>
					<g>
						<path d="M79.303,35.371l1.63-1.31c-0.687,0.552-1.283,1.075-1.789,1.567c-1.518,1.469-2.695,3.239-3.533,5.311
							c-0.838,2.08-1.259,4.305-1.263,6.683l-1.63,1.31c0.004-2.378,0.425-4.602,1.263-6.683c0.838-2.071,2.016-3.842,3.533-5.311
							C78.02,36.445,78.616,35.923,79.303,35.371z"/>
					</g>
					<g>
						<polygon points="78.837,44.088 80.467,42.778 91.052,43.81 89.422,45.12 						"/>
					</g>
					<g>
						<polygon points="72.718,48.931 74.348,47.621 95.951,49.727 94.321,51.037 						"/>
					</g>
					<g>
						<polygon points="95.266,51.146 96.895,49.836 96.877,50.777 95.247,52.087 						"/>
					</g>
					<g>
						<polygon points="73.635,27.454 75.264,26.144 79.757,26.582 78.127,27.892 						"/>
					</g>
					<g>
						<polygon points="79.071,27.923 80.701,26.613 80.759,27.639 79.129,28.949 						"/>
					</g>
					<g>
						<path fill="#8DC63F" d="M86.089,30.424C86.09,30.424,86.09,30.424,86.089,30.424c-0.542,0.436-1.085,0.874-1.629,1.31
							c0,0,0,0,0,0c-2.074,1.328-3.793,2.541-5.157,3.636l1.629-1.31C82.296,32.965,84.016,31.752,86.089,30.424z"/>
					</g>
					<g>
						<polygon points="90.549,38.39 92.179,37.08 91.977,44.869 90.348,46.179 						"/>
					</g>
					<g>
						<polygon points="89.632,37.341 91.262,36.03 92.181,36.12 90.551,37.43 						"/>
					</g>
					<g>
						<path fill="#8DC63F" d="M86.09,30.424c0.92-0.598,1.701-1.154,2.343-1.67l-1.63,1.31c-0.642,0.516-1.422,1.073-2.342,1.67
							c0.028-0.023,0.065-0.053,0.093-0.075c0.241-0.193,0.481-0.387,0.722-0.58C85.547,30.861,85.808,30.629,86.09,30.424z"/>
					</g>
					<g>
						<path d="M78.624,34.636l1.629-1.31c1.404-1.128,3.171-2.377,5.277-3.734c0.901-0.582,1.665-1.125,2.286-1.624l-1.63,1.31
							c-0.621,0.499-1.384,1.042-2.286,1.624C81.795,32.258,80.027,33.507,78.624,34.636z"/>
					</g>
					<g>
						<polygon fill="#8DC63F" points="94.659,38.791 96.288,37.48 95.951,49.727 94.321,51.037 						"/>
					</g>
					<g>
						<polygon fill="#8DC63F" points="90.549,38.39 92.179,37.08 96.288,37.48 94.659,38.791 						"/>
					</g>
					<g>
						<path d="M77.073,16.712l1.63-1.31c-0.299,0.24-0.58,0.507-0.841,0.799c-1.74,1.932-2.613,4.761-2.62,8.479
							c-0.001,0.38-0.002,0.864,0.022,1.463l-1.629,1.311c-0.024-0.6-0.023-1.083-0.023-1.464c0.007-3.718,0.88-6.547,2.62-8.479
							C76.493,17.219,76.774,16.953,77.073,16.712z"/>
					</g>
					<g>
						<polygon fill="#8DC63F" points="71.09,9.15 72.72,7.84 65.359,53.334 63.729,54.645 						"/>
					</g>
					<g>
						<polygon points="71.888,10.188 73.518,8.877 66.294,53.573 64.665,54.883 						"/>
					</g>
					<g>
						<path fill="#8DC63F" d="M79.709,24.691c-0.001,0.666,0.015,1.29,0.047,1.89l-1.63,1.31c-0.033-0.6-0.048-1.224-0.047-1.89
							c0.005-2.628,0.485-4.475,1.423-5.542c0.134-0.151,0.279-0.29,0.435-0.416l1.63-1.31c-0.156,0.125-0.302,0.264-0.436,0.415
							C80.194,20.217,79.714,22.063,79.709,24.691z"/>
					</g>
					<g>
						<path d="M80.565,20.827l1.629-1.31c-0.12,0.097-0.23,0.202-0.332,0.317c-0.793,0.9-1.205,2.563-1.209,4.95
							c-0.001,0.64,0.014,1.255,0.047,1.83l-1.63,1.31c-0.033-0.574-0.048-1.19-0.047-1.83c0.004-2.386,0.416-4.05,1.209-4.95
							C80.334,21.029,80.445,20.923,80.565,20.827z"/>
					</g>
					<g>
						<polygon points="69.587,7.127 71.217,5.817 64.829,45.353 63.199,46.663 						"/>
					</g>
					<g>
						<path d="M81.637,38.989l1.629-1.31c1.081-0.869,2.459-1.827,4.134-2.873c1.888-1.166,3.433-2.231,4.634-3.196l-1.63,1.31
							c-1.201,0.965-2.746,2.031-4.633,3.196C84.096,37.163,82.718,38.12,81.637,38.989z"/>
					</g>
					<g>
						<polygon points="90.551,37.43 92.181,36.12 96.29,36.521 94.661,37.831 						"/>
					</g>
					<g>
						<polygon points="95.612,38.909 97.242,37.599 96.895,49.836 95.266,51.146 						"/>
					</g>
					<g>
						<polygon fill="#8DC63F" points="69.587,7.127 71.217,5.817 71.83,5.876 70.2,7.187 						"/>
					</g>
					<g>
						<polygon points="68.79,6.089 70.419,4.779 71.219,4.857 69.589,6.167 						"/>
					</g>
					<g>
						<polygon points="94.661,37.831 96.29,36.521 97.269,36.616 95.639,37.926 						"/>
					</g>
					<g>
						<polygon points="95.639,37.926 97.269,36.616 97.242,37.599 95.612,38.909 						"/>
					</g>
					<g>
						<polygon points="69.589,6.167 71.219,4.857 71.832,4.917 70.202,6.227 						"/>
					</g>
					<g>
						<polygon fill="#8DC63F" points="70.2,7.187 71.83,5.876 73.021,5.993 71.391,7.303 						"/>
					</g>
					<g>
						<polygon points="70.202,6.227 71.832,4.917 73.022,5.033 71.393,6.343 						"/>
					</g>
					<g>
						<path d="M79.938,20.044l1.63-1.31c0.939-0.755,2.282-1.05,4.018-0.881c1.736,0.169,3.088,0.812,4.082,1.92
							c0.985,1.108,1.476,2.461,1.473,4.061c-0.002,1.297-0.354,2.404-1.053,3.313c-0.373,0.484-0.923,1.019-1.654,1.606l-1.63,1.31
							c0.731-0.587,1.282-1.123,1.655-1.606c0.699-0.909,1.05-2.016,1.053-3.313c0.003-1.6-0.488-2.953-1.473-4.061
							c-0.994-1.108-2.346-1.751-4.082-1.92C82.219,18.994,80.876,19.289,79.938,20.044z"/>
					</g>
					<g>
						<path fill="#8DC63F" d="M77.073,16.712l1.63-1.31c1.678-1.35,3.943-1.882,6.788-1.605l-1.63,1.31
							C81.016,14.83,78.751,15.363,77.073,16.712z"/>
					</g>
					<g>
						<path fill="#8DC63F" d="M94.192,29.563c-0.515,0.623-1.235,1.305-2.158,2.048l-1.629,1.31
							c0.923-0.743,1.643-1.425,2.158-2.048c0.022-0.022,0.057-0.046,0.082-0.065c0.453-0.364,0.905-0.728,1.358-1.092
							C94.066,29.664,94.129,29.613,94.192,29.563c-0.543,0.437-1.086,0.873-1.629,1.31c1.186-1.432,1.776-3.242,1.78-5.43l0,0
							c0.039-0.032,0.078-0.063,0.118-0.095c0.091-0.073,0.183-0.147,0.274-0.221c0.412-0.332,0.825-0.664,1.237-0.995v0
							C95.969,26.32,95.378,28.13,94.192,29.563z"/>
					</g>
					<g>
						<path fill="#8DC63F" d="M93.279,17.246c-0.543,0.437-1.086,0.874-1.629,1.31c-1.801-1.965-4.402-3.118-7.789-3.448l1.63-1.31
							C88.877,14.127,91.479,15.28,93.279,17.246z"/>
					</g>
					<g>
						<path fill="#8DC63F" d="M95.973,24.132c-0.543,0.437-1.085,0.875-1.629,1.31c0.005-2.62-0.893-4.912-2.693-6.886
							c0.544-0.436,1.086-0.874,1.629-1.31h0C95.08,19.22,95.978,21.512,95.973,24.132z"/>
					</g>
					<g>
						<path d="M76.434,15.943l1.629-1.31c1.856-1.492,4.346-2.096,7.429-1.796c3.634,0.354,6.474,1.625,8.452,3.79
							c1.979,2.165,2.987,4.728,2.982,7.598c-0.004,2.395-0.672,4.414-1.986,5.999c-0.554,0.672-1.311,1.393-2.28,2.172l-1.63,1.31
							c0.97-0.779,1.726-1.501,2.28-2.172c1.314-1.584,1.981-3.604,1.986-5.999c0.005-2.87-1.003-5.433-2.982-7.598
							c-1.979-2.164-4.818-3.436-8.452-3.79C80.78,13.847,78.289,14.452,76.434,15.943z"/>
					</g>
					<g>
						<path d="M94.661,37.831l0.979,0.096l-0.027,0.983l-0.346,12.237l-0.019,0.941l-0.928-0.09l-21.603-2.106l-0.945-0.092
							l0.002-0.96c0.004-2.481,0.451-4.842,1.323-7.022c0.881-2.189,2.135-4.073,3.729-5.612c1.552-1.5,3.938-3.283,7.073-5.303
							c1.875-1.209,3.153-2.252,3.792-3.08c0.589-0.764,0.871-1.671,0.874-2.769c0.002-1.349-0.396-2.451-1.202-3.36
							c-0.815-0.91-1.93-1.425-3.41-1.569c-1.727-0.168-2.979,0.177-3.72,1.021c-0.793,0.9-1.205,2.563-1.209,4.95
							c-0.001,0.64,0.014,1.255,0.047,1.83l0.058,1.026l-1.004-0.098l-4.492-0.438l-0.919-0.089l-0.024-0.937
							c-0.024-0.607-0.023-1.101-0.022-1.489c0.007-3.935,0.958-6.989,2.833-9.072c1.919-2.131,4.729-3.033,8.362-2.679
							c3.633,0.354,6.473,1.626,8.452,3.79c1.979,2.165,2.987,4.728,2.982,7.598c-0.004,2.395-0.672,4.414-1.986,5.999
							c-1.253,1.521-3.546,3.295-6.997,5.423c-3.135,1.951-5.206,3.591-6.162,4.873c-0.605,0.806-1.041,1.567-1.314,2.258
							l10.584,1.032l0.183-6.848l0.027-0.931l0.919,0.089L94.661,37.831z M94.321,51.037l0.337-12.246l-4.109-0.401l-0.202,7.789
							L77.61,44.938c0.164-1.125,0.753-2.365,1.769-3.737c1.015-1.362,3.146-3.057,6.392-5.084c3.339-2.061,5.606-3.812,6.792-5.245
							c1.186-1.432,1.776-3.242,1.78-5.43c0.005-2.62-0.893-4.913-2.693-6.887c-1.801-1.965-4.402-3.118-7.789-3.448
							c-3.352-0.327-5.898,0.471-7.629,2.404c-1.739,1.932-2.613,4.761-2.62,8.479c0,0.38-0.001,0.864,0.023,1.464l4.492,0.438
							c-0.033-0.6-0.048-1.224-0.047-1.89c0.005-2.628,0.485-4.475,1.423-5.542c0.938-1.059,2.428-1.493,4.453-1.296
							c1.736,0.169,3.088,0.812,4.082,1.92c0.985,1.108,1.476,2.461,1.473,4.061c-0.002,1.297-0.354,2.404-1.053,3.313
							c-0.7,0.909-2.029,1.999-3.998,3.277c-3.118,1.997-5.437,3.733-6.945,5.204c-1.518,1.469-2.695,3.239-3.533,5.311
							c-0.838,2.081-1.259,4.305-1.263,6.683L94.321,51.037"/>
					</g>
					<g>
						<path fill="#8DC63F" d="M83.861,15.107c3.387,0.33,5.988,1.483,7.789,3.448c1.8,1.974,2.698,4.267,2.693,6.887
							c-0.004,2.188-0.595,3.998-1.78,5.43c-1.186,1.433-3.453,3.184-6.792,5.245c-3.247,2.027-5.377,3.722-6.392,5.084
							c-1.015,1.372-1.604,2.611-1.769,3.737l12.737,1.241l0.202-7.789l4.109,0.401l-0.337,12.246l-21.603-2.105
							c0.004-2.378,0.425-4.602,1.263-6.683c0.838-2.071,2.016-3.842,3.533-5.311c1.509-1.47,3.827-3.207,6.945-5.204
							c1.968-1.278,3.298-2.368,3.998-3.277c0.699-0.909,1.05-2.016,1.053-3.313c0.003-1.6-0.488-2.953-1.473-4.061
							c-0.994-1.108-2.346-1.751-4.082-1.92c-2.025-0.197-3.515,0.237-4.453,1.296c-0.938,1.067-1.418,2.914-1.423,5.542
							c-0.001,0.666,0.015,1.291,0.047,1.89l-4.492-0.438c-0.024-0.6-0.023-1.083-0.023-1.464c0.007-3.718,0.88-6.547,2.62-8.479
							C77.963,15.579,80.509,14.781,83.861,15.107z"/>
					</g>
					<g>
						<polygon points="71.09,9.15 72.72,7.84 101.733,10.668 100.104,11.978 						"/>
					</g>
					<g>
						<polygon points="101.048,12.07 102.678,10.76 102.676,11.72 101.047,13.03 						"/>
					</g>
					<g>
						<polygon fill="#8DC63F" points="71.391,7.303 73.021,5.993 101.737,8.792 100.107,10.102 						"/>
					</g>
					<g>
						<polygon fill="#8DC63F" points="100.107,10.102 101.737,8.792 101.733,10.668 100.104,11.978 						"/>
					</g>
					<g>
						<path d="M100.109,9.142l0.944,0.092l-0.002,0.96l-0.003,1.876l-0.001,0.96l-0.945-0.092l-28.214-2.75l-7.223,44.695
							l-0.482,2.962l-1.305-2.868l-11.611-25.5l-3.985,1.453l-0.809,0.302l-0.416-0.836l-0.822-1.654l-0.449-0.909l0.868-0.356
							l7.316-3.023l0.852-0.349l0.424,0.914l8.493,18.46L68.661,6.89l0.129-0.8l0.8,0.078l0.613,0.06l1.191,0.116L100.109,9.142z
							 M100.104,11.978l0.003-1.876L71.391,7.303L70.2,7.187l-0.613-0.06l-6.388,39.536L53.393,25.36l-7.324,3.013l0.822,1.645
							l4.829-1.76l12.01,26.386L71.09,9.15L100.104,11.978"/>
					</g>
					<g>
						<polygon fill="#8DC63F" points="100.107,10.102 100.104,11.978 71.09,9.15 63.729,54.645 51.72,28.258 46.891,30.018 
							46.069,28.373 53.393,25.36 63.199,46.663 69.587,7.127 70.2,7.187 71.391,7.303 						"/>
					</g>
					<g>
						<polygon points="71.393,6.343 73.022,5.033 101.739,7.832 100.109,9.142 						"/>
					</g>
					<g>
						<polygon points="101.052,10.194 102.682,8.884 102.678,10.76 101.048,12.07 						"/>
					</g>
					<g>
						<polygon points="101.054,9.234 102.683,7.924 102.682,8.884 101.052,10.194 						"/>
					</g>
					<g>
						<polygon points="100.109,9.142 101.739,7.832 102.683,7.924 101.054,9.234 						"/>
					</g>
				</g>
			</g>
		</g>
		<g>
			<g>
				<g enable-background="new    ">
					<g>
						<polygon points="35.733,51.473 37.362,50.163 41.881,50.604 40.251,51.914 						"/>
					</g>
					<g>
						<polygon points="31.169,20.607 32.799,19.297 32.792,22.998 31.163,24.308 						"/>
					</g>
					<g>
						<polygon points="31.163,24.308 32.792,22.998 36.936,23.401 35.306,24.711 						"/>
					</g>
					<g>
						<polygon points="35.781,25.242 37.411,23.932 37.362,50.163 35.733,51.473 						"/>
					</g>
					<g>
						<polygon points="35.782,24.758 37.412,23.448 37.411,23.932 35.781,25.242 						"/>
					</g>
					<g>
						<polygon points="35.306,24.711 36.936,23.401 37.412,23.448 35.782,24.758 						"/>
					</g>
					<g>
						<polygon points="55.251,53.375 56.881,52.065 61.425,52.508 59.795,53.818 						"/>
					</g>
					<g>
						<polygon fill="#00AEEF" points="40.3,25.683 41.93,24.372 41.881,50.604 40.251,51.914 						"/>
					</g>
					<g>
						<polygon fill="#00AEEF" points="40.301,25.198 41.93,23.888 41.93,24.372 40.3,25.683 						"/>
					</g>
					<g>
						<polygon points="40.768,25.728 42.397,24.418 42.348,51.125 40.718,52.435 						"/>
					</g>
					<g>
						<polygon points="40.301,25.198 41.93,23.888 42.398,23.934 40.768,25.244 						"/>
					</g>
					<g>
						<polygon points="40.768,25.244 42.398,23.934 56.454,25.304 54.825,26.614 						"/>
					</g>
					<g>
						<polygon points="55.3,27.145 56.93,25.834 56.881,52.065 55.251,53.375 						"/>
					</g>
					<g>
						<polygon points="55.301,26.66 56.931,25.35 56.93,25.834 55.3,27.145 						"/>
					</g>
					<g>
						<polygon points="54.825,26.614 56.454,25.304 56.931,25.35 55.301,26.66 						"/>
					</g>
					<g>
						<polygon fill="#00AEEF" points="59.844,27.587 61.474,26.277 61.425,52.508 59.795,53.818 						"/>
					</g>
					<g>
						<polygon fill="#00AEEF" points="59.845,27.103 61.474,25.793 61.474,26.277 59.844,27.587 						"/>
					</g>
					<g>
						<polygon points="60.32,27.634 61.95,26.324 61.9,53.031 60.271,54.341 						"/>
					</g>
					<g>
						<polygon points="59.845,27.103 61.474,25.793 61.951,25.839 60.321,27.149 						"/>
					</g>
					<g>
						<polygon points="60.321,27.149 61.951,25.839 66.095,26.243 64.465,27.554 						"/>
					</g>
					<g>
						<polygon fill="#00AEEF" points="64.472,23.853 66.102,22.543 66.095,26.244 64.465,27.554 						"/>
					</g>
					<g>
						<polygon points="64.94,23.423 66.57,22.113 66.562,26.773 64.932,28.083 						"/>
					</g>
					<g>
						<polygon fill="#00AEEF" points="31.169,20.607 32.799,19.297 66.102,22.543 64.472,23.853 						"/>
					</g>
					<g>
						<path d="M30.702,20.086l34.238,3.337l-0.009,4.66l-4.611-0.449l-0.05,26.707l-5.497-0.536l0.05-26.707l-14.056-1.37
							l-0.05,26.707l-5.462-0.533l0.05-26.707l-4.612-0.449L30.702,20.086z M64.465,27.554l0.007-3.701l-33.302-3.246l-0.007,3.701
							l4.144,0.404l0.476,0.046l-0.001,0.484l-0.048,26.231l4.518,0.44L40.3,25.683l0.001-0.484l0.467,0.045l14.057,1.37
							l0.476,0.046L55.3,27.145l-0.048,26.231l4.543,0.443l0.049-26.231l0.001-0.484l0.476,0.046L64.465,27.554"/>
					</g>
					<g>
						<polygon fill="#00AEEF" points="64.472,23.853 64.465,27.554 60.321,27.149 59.845,27.103 59.844,27.587 59.795,53.818 
							55.251,53.376 55.3,27.145 55.301,26.66 54.825,26.614 40.769,25.244 40.301,25.198 40.3,25.683 40.251,51.914 35.733,51.473 
							35.781,25.242 35.782,24.758 35.306,24.711 31.163,24.308 31.169,20.607 						"/>
					</g>
					<g>
						<polygon points="30.702,20.086 32.332,18.776 66.57,22.113 64.94,23.423 						"/>
					</g>
				</g>
			</g>
		</g>
		<g>
			<g>
				<g enable-background="new    ">
					<g>
						<path fill="#FFDE17" d="M23.365,45.616c0.38,0.542,0.801,1.057,1.262,1.544c-0.543,0.437-1.086,0.873-1.63,1.31
							c-0.461-0.487-0.881-1.002-1.262-1.544C22.278,46.489,22.822,46.052,23.365,45.616z"/>
					</g>
					<g>
						<path fill="#FFDE17" d="M22.958,45.001c0.13,0.209,0.266,0.414,0.407,0.615c-0.543,0.437-1.087,0.874-1.63,1.31
							c-0.141-0.201-0.277-0.406-0.407-0.614C21.872,45.875,22.415,45.438,22.958,45.001z"/>
					</g>
					<g>
						<path fill="#FFDE17" d="M24.627,47.16c0.185,0.195,0.374,0.384,0.568,0.565c-0.543,0.437-1.086,0.874-1.63,1.31
							c-0.194-0.181-0.384-0.37-0.568-0.565C23.541,48.033,24.083,47.597,24.627,47.16z"/>
					</g>
					<g>
						<path fill="#FFDE17" d="M25.195,47.725c0.053,0.05,0.107,0.099,0.162,0.148c-0.543,0.437-1.087,0.873-1.63,1.31
							c-0.054-0.049-0.108-0.098-0.162-0.148C24.109,48.599,24.652,48.162,25.195,47.725z"/>
					</g>
					<g>
						<path fill="#FFDE17" d="M22.958,45.001c-0.543,0.437-1.086,0.874-1.629,1.311c-0.292-0.469-0.556-0.956-0.792-1.461
							c0.543-0.437,1.087-0.873,1.63-1.31C22.402,44.046,22.666,44.533,22.958,45.001z"/>
					</g>
					<g>
						<path fill="#FFDE17" d="M26.466,48.757c-0.543,0.437-1.086,0.874-1.629,1.31c-0.386-0.271-0.755-0.565-1.11-0.884
							c0.543-0.437,1.086-0.874,1.63-1.31C25.711,48.191,26.081,48.486,26.466,48.757z"/>
					</g>
					<g>
						<path fill="#FFDE17" d="M21.543,41.959c0.179,0.545,0.387,1.072,0.624,1.582c-0.543,0.437-1.086,0.873-1.63,1.31
							c-0.237-0.509-0.445-1.036-0.624-1.581C20.457,42.833,21,42.396,21.543,41.959z"/>
					</g>
					<g>
						<path fill="#FFDE17" d="M26.466,48.757c0.521,0.366,1.069,0.688,1.644,0.965c-0.543,0.437-1.086,0.874-1.629,1.31
							c-0.575-0.278-1.124-0.6-1.644-0.965C25.38,49.63,25.923,49.194,26.466,48.757z"/>
					</g>
					<g>
						<path fill="#FFDE17" d="M29.929,50.427c-0.245,0.197-0.49,0.394-0.734,0.59c-0.298,0.24-0.597,0.48-0.896,0.72
							c-0.633-0.19-1.239-0.425-1.818-0.705c0.543-0.437,1.086-0.874,1.629-1.31C28.69,50.002,29.296,50.237,29.929,50.427z"/>
					</g>
					<g>
						<path fill="#FFDE17" d="M21.543,41.959c-0.543,0.437-1.086,0.874-1.63,1.31c-0.308-0.939-0.529-1.932-0.662-2.973l1.63-1.31
							C21.013,40.028,21.234,41.02,21.543,41.959z"/>
					</g>
					<g>
						<polygon fill="#FFDE17" points="19.176,39.744 20.806,38.434 20.881,38.986 19.251,40.296 						"/>
					</g>
					<g>
						<path fill="#FFDE17" d="M29.929,50.427c0.237,0.071,0.478,0.136,0.722,0.195c-0.543,0.437-1.086,0.874-1.629,1.31
							c-0.245-0.059-0.485-0.124-0.723-0.194c0.298-0.24,0.597-0.48,0.896-0.72C29.439,50.82,29.684,50.624,29.929,50.427z"/>
					</g>
					<g>
						<polygon points="19.176,39.744 20.806,38.434 21.35,38.487 19.72,39.797 						"/>
					</g>
					<g>
						<path fill="#FFDE17" d="M30.651,50.622c0.632,0.151,1.288,0.26,1.968,0.327l-1.629,1.31c-0.68-0.066-1.336-0.175-1.968-0.327
							C29.565,51.495,30.108,51.059,30.651,50.622z"/>
					</g>
					<g>
						<path d="M19.719,40.272l1.629-1.31c0.403,3.144,1.606,5.769,3.603,7.875c1.996,2.114,4.555,3.324,7.669,3.627l-1.629,1.31
							c-3.114-0.303-5.673-1.513-7.669-3.627C21.325,46.041,20.122,43.416,19.719,40.272z"/>
					</g>
					<g>
						<path fill="#FFDE17" d="M32.619,50.948c0.439,0.042,0.87,0.067,1.292,0.074c-0.543,0.437-1.086,0.874-1.629,1.31
							c-0.423-0.007-0.854-0.032-1.292-0.074C31.479,51.865,32.018,51.127,32.619,50.948z"/>
					</g>
					<g>
						<path fill="#FFDE17" d="M34.13,51.024c-0.543,0.437-1.086,0.874-1.63,1.31c-0.072,0-0.146,0-0.218-0.002
							c0.543-0.437,1.086-0.873,1.629-1.31C33.985,51.024,34.058,51.024,34.13,51.024z"/>
					</g>
					<g>
						<polygon fill="#FFDE17" points="19.412,35.944 21.042,34.635 21.595,34.688 19.965,35.999 						"/>
					</g>
					<g>
						<polygon fill="#FFDE17" points="19.499,35.4 21.128,34.09 21.042,34.635 19.412,35.944 						"/>
					</g>
					<g>
						<path fill="#FFDE17" d="M21.666,31.887c-0.238,0.689-0.417,1.424-0.538,2.203l-1.629,1.31c0.12-0.779,0.299-1.513,0.538-2.203
							C20.58,32.76,21.123,32.324,21.666,31.887z"/>
					</g>
					<g>
						<path fill="#FFDE17" d="M21.879,31.319c-0.076,0.186-0.146,0.375-0.213,0.568c-0.543,0.437-1.086,0.873-1.629,1.31
							c0.066-0.193,0.138-0.382,0.213-0.568C20.793,32.193,21.336,31.756,21.879,31.319z"/>
					</g>
					<g>
						<path fill="#FFDE17" d="M22.361,30.299c-0.177,0.327-0.337,0.667-0.481,1.021c-0.543,0.437-1.086,0.874-1.629,1.31
							c0.144-0.353,0.304-0.693,0.481-1.02C21.274,31.173,21.817,30.735,22.361,30.299z"/>
					</g>
					<g>
						<path fill="#FFDE17" d="M22.944,29.352c-0.211,0.303-0.406,0.618-0.583,0.947c-0.543,0.437-1.086,0.874-1.63,1.311
							c0.178-0.329,0.373-0.645,0.583-0.948C21.857,30.225,22.401,29.788,22.944,29.352z"/>
					</g>
					<g>
						<path fill="#FFDE17" d="M34.13,51.024c2.885,0.005,5.383-0.836,7.462-2.508l-1.629,1.31c-2.08,1.672-4.578,2.513-7.463,2.508
							c0.482-0.387,0.963-0.774,1.445-1.161c0.031-0.025,0.062-0.05,0.093-0.074C34.069,51.074,34.091,51.039,34.13,51.024z"/>
					</g>
					<g>
						<path d="M41.281,48.132l-1.63,1.31c-2.348,1.887-5.235,2.666-8.661,2.332l1.629-1.31
							C36.046,50.798,38.933,50.019,41.281,48.132z"/>
					</g>
					<g>
						<path d="M23.357,29.169l1.629-1.31c-1.85,1.541-2.977,3.661-3.391,6.345l-1.629,1.311
							C20.38,32.831,21.507,30.71,23.357,29.169z"/>
					</g>
					<g>
						<path fill="#FFDE17" d="M22.944,29.352c-0.04,0.042-0.09,0.072-0.135,0.108c-0.011,0.009-0.025,0.02-0.036,0.029
							c-0.13,0.104-0.26,0.209-0.39,0.313c-0.356,0.287-0.712,0.573-1.069,0.859c0.486-0.697,1.06-1.324,1.719-1.878
							c0.047-0.04,0.095-0.079,0.143-0.117l1.629-1.31c-0.047,0.038-0.095,0.077-0.142,0.117
							C24.003,28.028,23.43,28.654,22.944,29.352z"/>
					</g>
					<g>
						<path d="M23.498,29.053l1.63-1.31c-0.047,0.038-0.095,0.077-0.142,0.116l-1.629,1.31
							C23.404,29.13,23.451,29.091,23.498,29.053z"/>
					</g>
					<g>
						<path d="M18.549,25.743c0.543-0.437,1.086-0.874,1.629-1.31c-0.138,0.111-0.275,0.225-0.411,0.341
							c-3.384,2.887-5.102,6.888-5.111,11.876c-0.01,5.266,1.735,9.664,5.192,13.097c3.465,3.442,7.717,5.43,12.626,5.909
							c3.165,0.309,6.247-0.091,9.15-1.192c1.453-0.55,2.779-1.307,3.969-2.263c-0.543,0.437-1.087,0.873-1.63,1.31
							c-1.189,0.956-2.515,1.713-3.968,2.263c-2.904,1.101-5.986,1.5-9.15,1.192c-4.91-0.479-9.161-2.467-12.626-5.909
							c-3.458-3.433-5.203-7.832-5.193-13.097c0.009-4.989,1.728-8.989,5.112-11.876C18.274,25.967,18.411,25.854,18.549,25.743z"/>
					</g>
					<g>
						<path d="M41.593,48.516l-1.629,1.31c0.692-0.556,1.337-1.204,1.936-1.944l1.63-1.31C42.931,47.312,42.285,47.96,41.593,48.516
							z"/>
					</g>
					<g>
						<polygon fill="#FFDE17" points="41.899,47.882 43.529,46.572 48.4,49.235 46.771,50.545 						"/>
					</g>
					<g>
						<path fill="#FFDE17" d="M45.594,52.2l-1.63,1.31c1.042-0.837,1.979-1.827,2.807-2.965l1.63-1.31
							C47.572,50.373,46.635,51.363,45.594,52.2z"/>
					</g>
					<g>
						<path d="M45.905,52.593l-1.63,1.311c1.204-0.968,2.27-2.136,3.202-3.506l1.63-1.31C48.174,50.457,47.108,51.625,45.905,52.593
							z"/>
					</g>
					<g>
						<polygon points="41.747,47.279 43.377,45.969 49.107,49.087 47.477,50.397 						"/>
					</g>
					<g>
						<polygon fill="#FFDE17" points="40.812,38.03 42.441,36.72 43.011,36.776 41.382,38.086 						"/>
					</g>
					<g>
						<polygon points="41.272,37.496 42.901,36.186 43.011,36.776 41.382,38.086 						"/>
					</g>
					<g>
						<polygon fill="#FFDE17" points="19.965,35.999 21.595,34.688 42.441,36.72 40.812,38.03 						"/>
					</g>
					<g>
						<polygon points="19.966,35.515 21.596,34.204 42.442,36.236 40.813,37.546 						"/>
					</g>
					<g>
						<polygon points="19.72,39.797 21.35,38.487 48.628,41.146 46.999,42.456 						"/>
					</g>
					<g>
						<path d="M23.176,28.667l1.629-1.31c1.899-1.527,4.2-2.167,6.84-1.909c2.952,0.288,5.486,1.538,7.516,3.724
							c2.013,2.159,3.268,4.521,3.739,7.014l-1.629,1.31c-0.472-2.493-1.727-4.855-3.74-7.014c-2.03-2.187-4.563-3.437-7.516-3.724
							C27.376,26.5,25.076,27.14,23.176,28.667z"/>
					</g>
					<g>
						<path d="M40.812,38.03l-20.846-2.032l-0.553-0.054l0.087-0.544c0.43-2.786,1.617-5.005,3.535-6.617
							c1.927-1.611,4.276-2.29,6.982-2.026c2.953,0.288,5.486,1.538,7.516,3.724c2.013,2.159,3.268,4.521,3.74,7.014l0.11,0.59
							L40.812,38.03z M23.357,29.169c-1.85,1.541-2.977,3.662-3.391,6.345l20.846,2.032c-0.456-2.405-1.651-4.649-3.604-6.75
							c-1.953-2.093-4.351-3.278-7.193-3.555C27.42,26.988,25.198,27.628,23.357,29.169"/>
					</g>
					<g>
						<path fill="#FFDE17" d="M18.549,25.743l1.63-1.31c3.298-2.652,7.1-3.787,11.305-3.377c4.289,0.418,8.242,2.395,11.733,5.891
							c3.39,3.383,5.21,8.161,5.412,14.199l-1.629,1.31c-0.202-6.038-2.022-10.816-5.412-14.199
							c-3.491-3.496-7.444-5.473-11.733-5.891C25.648,21.956,21.848,23.091,18.549,25.743z"/>
					</g>
					<g>
						<path fill="#FFDE17" d="M30.99,52.258c4.535,0.442,8.206-1.034,10.91-4.376l4.871,2.663c-1.774,2.438-4.05,4.197-6.775,5.229
							c-2.904,1.101-5.986,1.5-9.15,1.192c-4.91-0.479-9.161-2.467-12.626-5.909c-3.458-3.433-5.203-7.832-5.193-13.097
							c0.009-4.989,1.728-8.989,5.112-11.876c3.392-2.895,7.334-4.145,11.716-3.718c4.289,0.418,8.242,2.395,11.733,5.891
							c3.39,3.383,5.21,8.161,5.412,14.199L19.72,39.797l-0.544-0.053l0.075,0.553c0.411,3.23,1.674,5.982,3.746,8.173
							C25.07,50.669,27.765,51.944,30.99,52.258z M19.499,35.4l-0.087,0.544l0.553,0.054l20.846,2.032l0.57,0.056l-0.11-0.59
							c-0.472-2.493-1.727-4.855-3.74-7.014c-2.03-2.187-4.563-3.437-7.516-3.724c-2.706-0.264-5.056,0.415-6.982,2.026
							C21.116,30.395,19.929,32.614,19.499,35.4"/>
					</g>
					<g>
						<path d="M18.238,25.347l1.63-1.311c3.395-2.729,7.271-3.888,11.616-3.465c4.433,0.432,8.446,2.449,12.048,6.052
							c3.601,3.594,5.456,8.608,5.588,15.046l-1.629,1.311c-0.133-6.438-1.987-11.453-5.589-15.046
							c-3.602-3.603-7.615-5.62-12.047-6.052C25.51,21.458,21.633,22.617,18.238,25.347z"/>
					</g>
					<g>
						<path d="M30.991,51.774c4.526,0.441,8.112-1.06,10.756-4.495l5.73,3.118c-1.877,2.757-4.297,4.7-7.287,5.827
							c-2.98,1.137-6.096,1.542-9.346,1.225c-5.054-0.493-9.365-2.513-12.941-6.069c-3.576-3.548-5.355-8.037-5.345-13.466
							c0.009-5.153,1.762-9.228,5.256-12.217c3.495-2.98,7.514-4.257,12.041-3.816c4.433,0.432,8.446,2.449,12.047,6.052
							c3.602,3.594,5.456,8.608,5.589,15.046l-27.772-2.707c0.403,3.144,1.606,5.769,3.602,7.875
							C25.317,50.261,27.876,51.471,30.991,51.774z M46.771,50.545l-4.871-2.663c-2.704,3.342-6.375,4.818-10.91,4.376
							c-3.225-0.314-5.92-1.589-7.993-3.789c-2.072-2.191-3.335-4.943-3.746-8.173l-0.075-0.553l0.544,0.053l27.278,2.659
							c-0.202-6.038-2.022-10.816-5.412-14.199c-3.491-3.496-7.444-5.473-11.733-5.891c-4.382-0.427-8.324,0.823-11.716,3.718
							c-3.384,2.887-5.103,6.888-5.112,11.876c-0.01,5.265,1.735,9.664,5.193,13.097c3.465,3.442,7.717,5.431,12.626,5.909
							c3.165,0.308,6.247-0.092,9.15-1.192C42.721,54.742,44.996,52.983,46.771,50.545"/>
					</g>
				</g>
			</g>
		</g>
		<g>
			<g>
				<g enable-background="new    ">
					<g>
						<polygon points="6.637,51.899 8.302,50.592 8.291,56.446 6.626,57.752 						"/>
					</g>
					<g>
						<polygon points="6.163,51.367 7.828,50.061 8.303,50.108 6.638,51.415 						"/>
					</g>
					<g>
						<polygon fill="#A92E26" points="6.637,51.899 8.302,50.592 13.402,51.101 11.738,52.408 						"/>
					</g>
					<g>
						<polygon points="6.638,51.415 8.303,50.108 12.937,50.57 11.272,51.877 						"/>
					</g>
					<g>
						<polygon points="6.626,57.752 8.291,56.446 24.967,58.109 23.303,59.416 						"/>
					</g>
					<g>
						<polygon points="23.77,59.463 25.434,58.156 25.433,58.64 23.769,59.947 						"/>
					</g>
					<g>
						<polygon fill="#A92E26" points="18.205,53.053 19.869,51.746 24.978,52.256 23.313,53.563 						"/>
					</g>
					<g>
						<polygon fill="#B23128" points="23.313,53.563 24.978,52.256 24.967,58.109 23.303,59.416 						"/>
					</g>
					<g>
						<polygon fill="#B23128" points="18.256,25.352 19.921,24.045 19.869,51.746 18.205,53.053 						"/>
					</g>
					<g>
						<polygon points="18.681,52.616 20.345,51.31 24.979,51.772 23.314,53.079 						"/>
					</g>
					<g>
						<polygon points="23.78,53.609 25.445,52.303 25.434,58.156 23.77,59.463 						"/>
					</g>
					<g>
						<polygon points="23.314,53.079 24.979,51.772 25.446,51.818 23.781,53.125 						"/>
					</g>
					<g>
						<polygon points="23.781,53.125 25.446,51.818 25.445,52.303 23.78,53.609 						"/>
					</g>
					<g>
						<polygon points="6.689,24.197 8.354,22.891 8.343,28.744 6.678,30.051 						"/>
					</g>
					<g>
						<polygon points="6.678,30.051 8.343,28.744 13.443,29.253 11.778,30.56 						"/>
					</g>
					<g>
						<polygon points="11.778,30.56 13.443,29.253 13.402,51.101 11.738,52.408 						"/>
					</g>
					<g>
						<polygon points="6.214,23.666 7.879,22.359 8.354,22.407 6.689,23.713 						"/>
					</g>
					<g>
						<polygon fill="#A92E26" points="6.689,24.197 8.354,22.891 19.921,24.045 18.256,25.352 						"/>
					</g>
					<g>
						<path d="M23.314,53.079l0.467,0.046l-0.001,0.484l-0.011,5.854l-0.001,0.484L23.302,59.9L6.625,58.236L6.15,58.189
							l0.001-0.484l0.011-5.854l0.001-0.484l0.475,0.047l4.634,0.462l0.039-20.88l-4.634-0.462l-0.475-0.047l0.001-0.484
							l0.011-5.854l0-0.484l0.475,0.047l11.567,1.154l0.475,0.047l0,0.484l-0.051,27.217L23.314,53.079z M23.303,59.416l0.011-5.854
							l-5.109-0.51l0.051-27.701L6.689,24.197l-0.011,5.854l5.101,0.509l-0.041,21.848l-5.101-0.509l-0.011,5.854L23.303,59.416"/>
					</g>
					<g>
						<polygon fill="#AC2F27" points="18.205,53.053 23.313,53.563 23.303,59.416 6.626,57.752 6.637,51.899 11.738,52.408 
							11.778,30.56 6.678,30.051 6.689,24.197 18.256,25.352 						"/>
					</g>
					<g>
						<polygon points="6.689,23.713 8.354,22.407 19.921,23.561 18.257,24.868 						"/>
					</g>
					<g>
						<polygon points="18.731,25.399 20.396,24.092 20.345,51.31 18.681,52.616 						"/>
					</g>
					<g>
						<polygon points="18.257,24.868 19.921,23.561 20.396,23.608 18.732,24.915 						"/>
					</g>
					<g>
						<polygon points="18.732,24.915 20.396,23.608 20.396,24.092 18.731,25.399 						"/>
					</g>
				</g>
				<g enable-background="new    ">
					<g enable-background="new    ">
						<defs>
							<path id="SVGID_1_" enable-background="new    " d="M19.01,15.569l-1.665,1.307c-0.728,0.571-1.574,0.809-2.546,0.711
								c-1.086-0.108-2.011-0.598-2.773-1.461c-0.754-0.854-1.134-1.834-1.132-2.915c0.002-1.063,0.377-1.951,1.108-2.665
								l1.665-1.307c-0.731,0.714-1.106,1.602-1.108,2.665c-0.002,1.081,0.378,2.061,1.132,2.915
								c0.763,0.863,1.687,1.353,2.773,1.461C17.436,16.377,18.282,16.14,19.01,15.569z"/>
						</defs>
						<clipPath id="SVGID_2_">
							<use xlink:href="#SVGID_1_"  overflow="visible"/>
						</clipPath>
						<g clip-path="url(#SVGID_2_)" enable-background="new    ">
							<path d="M12.002,10.546l1.665-1.307c-0.174,0.17-0.328,0.35-0.461,0.539l-1.665,1.307
								C11.674,10.896,11.828,10.716,12.002,10.546"/>
							<path d="M11.541,11.085l1.665-1.307c-0.077,0.109-0.147,0.222-0.21,0.337l-1.665,1.307
								C11.394,11.307,11.464,11.194,11.541,11.085"/>
							<path d="M11.331,11.422l1.665-1.307c-0.049,0.089-0.094,0.181-0.134,0.273l-1.665,1.307
								C11.237,11.603,11.282,11.511,11.331,11.422"/>
							<path d="M11.197,11.695l1.665-1.307c-0.035,0.081-0.067,0.162-0.096,0.246l-1.665,1.307
								C11.129,11.857,11.162,11.776,11.197,11.695"/>
							<path d="M11.101,11.941l1.665-1.307c-0.027,0.076-0.051,0.154-0.072,0.232l-1.665,1.307
								C11.05,12.095,11.074,12.017,11.101,11.941"/>
							<path d="M11.028,12.173l1.665-1.307c-0.02,0.075-0.039,0.15-0.054,0.227L10.974,12.4
								C10.99,12.323,11.008,12.248,11.028,12.173"/>
							<path d="M10.974,12.4l1.665-1.307c-0.015,0.075-0.028,0.151-0.04,0.228l-1.665,1.307
								C10.945,12.551,10.959,12.475,10.974,12.4"/>
							<path d="M10.935,12.628l1.665-1.307c-0.011,0.077-0.02,0.155-0.026,0.234l-1.665,1.307
								C10.915,12.784,10.924,12.706,10.935,12.628"/>
							<path d="M10.908,12.863l1.665-1.307c-0.006,0.081-0.011,0.163-0.013,0.246l-1.665,1.307
								C10.897,13.025,10.901,12.943,10.908,12.863"/>
							<path d="M10.895,13.108l1.665-1.307c0,0.034-0.001,0.068-0.001,0.103c0,0.052,0,0.104,0.002,0.155l-1.665,1.307
								c-0.002-0.051-0.003-0.104-0.002-0.155C10.894,13.177,10.895,13.143,10.895,13.108"/>
							<path d="M10.896,13.366l1.665-1.307c0.002,0.085,0.008,0.17,0.015,0.254l-1.665,1.307
								C10.904,13.537,10.899,13.452,10.896,13.366"/>
							<path d="M10.912,13.621l1.665-1.307c0.008,0.084,0.018,0.168,0.031,0.251l-1.665,1.307
								C10.93,13.789,10.919,13.705,10.912,13.621"/>
							<path d="M10.942,13.872l1.665-1.307c0.013,0.086,0.028,0.171,0.046,0.255l-1.665,1.307
								C10.971,14.043,10.955,13.958,10.942,13.872"/>
							<path d="M10.989,14.127l1.665-1.307c0.02,0.09,0.042,0.179,0.067,0.268l-1.665,1.307
								C11.03,14.306,11.008,14.217,10.989,14.127"/>
							<path d="M11.056,14.395l1.665-1.307c0.028,0.099,0.06,0.196,0.096,0.293l-1.665,1.307
								C11.116,14.591,11.084,14.493,11.056,14.395"/>
							<path d="M11.151,14.688l1.665-1.307c0.043,0.118,0.092,0.234,0.147,0.349l-1.665,1.307
								C11.244,14.922,11.195,14.806,11.151,14.688"/>
							<path d="M11.298,15.036l1.665-1.307c0.091,0.192,0.197,0.378,0.319,0.561l-1.665,1.307
								C11.496,15.415,11.389,15.228,11.298,15.036"/>
							<path d="M11.617,15.597l1.665-1.307c0.121,0.181,0.257,0.357,0.409,0.529c0.069,0.078,0.139,0.152,0.21,0.224l-1.665,1.307
								c-0.071-0.072-0.141-0.146-0.21-0.224C11.875,15.954,11.738,15.778,11.617,15.597"/>
							<path d="M12.236,16.35l1.665-1.307c0.163,0.164,0.333,0.313,0.511,0.445l-1.665,1.307
								C12.569,16.662,12.399,16.514,12.236,16.35"/>
							<path d="M12.747,16.794l1.665-1.307c0.103,0.077,0.208,0.148,0.315,0.214l-1.665,1.307
								C12.955,16.943,12.849,16.871,12.747,16.794"/>
							<path d="M13.062,17.009l1.665-1.307c0.087,0.053,0.175,0.103,0.265,0.149l-1.665,1.307
								C13.237,17.112,13.148,17.062,13.062,17.009"/>
							<path d="M13.327,17.158l1.665-1.307c0.079,0.041,0.16,0.079,0.241,0.114l-1.665,1.307
								C13.486,17.237,13.406,17.199,13.327,17.158"/>
							<path d="M13.568,17.272l1.665-1.307c0.076,0.033,0.152,0.063,0.229,0.091l-1.665,1.307
								C13.72,17.335,13.644,17.305,13.568,17.272"/>
							<path d="M13.797,17.363l1.665-1.307c0.075,0.027,0.151,0.052,0.228,0.074l-1.665,1.307
								C13.948,17.415,13.873,17.39,13.797,17.363"/>
							<path d="M14.025,17.438l1.665-1.307c0.076,0.022,0.153,0.042,0.23,0.061l-1.665,1.307
								C14.178,17.48,14.101,17.459,14.025,17.438"/>
							<path d="M14.255,17.498l1.665-1.307c0.078,0.018,0.158,0.034,0.238,0.048l-1.665,1.307
								C14.413,17.532,14.333,17.516,14.255,17.498"/>
							<path d="M14.493,17.546l1.665-1.307c0.083,0.014,0.167,0.026,0.252,0.035l-1.665,1.307
								C14.661,17.572,14.576,17.56,14.493,17.546"/>
							<path d="M14.746,17.581l1.665-1.307c0.018,0.002,0.035,0.004,0.053,0.006c0.069,0.007,0.137,0.012,0.204,0.016l-1.665,1.307
								c-0.067-0.003-0.136-0.009-0.204-0.016C14.781,17.585,14.763,17.583,14.746,17.581"/>
							<path d="M15.003,17.603l1.665-1.307c0.084,0.004,0.167,0.006,0.249,0.005l-1.665,1.307
								C15.169,17.608,15.087,17.607,15.003,17.603"/>
							<path d="M15.251,17.608l1.665-1.307c0.082-0.001,0.163-0.004,0.244-0.01l-1.665,1.307
								C15.415,17.604,15.333,17.607,15.251,17.608"/>
							<path d="M15.495,17.598l1.665-1.307c0.083-0.006,0.165-0.015,0.246-0.027l-1.665,1.307
								C15.66,17.583,15.578,17.592,15.495,17.598"/>
							<path d="M15.74,17.571l1.665-1.307c0.086-0.012,0.172-0.028,0.256-0.047l-1.665,1.307
								C15.913,17.543,15.827,17.559,15.74,17.571"/>
							<path d="M15.997,17.524l1.665-1.307c0.096-0.021,0.19-0.047,0.282-0.077l-1.665,1.307
								C16.187,17.477,16.093,17.502,15.997,17.524"/>
							<path d="M16.279,17.447l1.665-1.307c0.119-0.038,0.234-0.082,0.348-0.133l-1.665,1.307
								C16.514,17.365,16.397,17.41,16.279,17.447"/>
							<path d="M16.627,17.314l1.665-1.307c0.251-0.113,0.491-0.259,0.718-0.438l-1.665,1.307
								C17.118,17.055,16.878,17.201,16.627,17.314"/>
						</g>
					</g>
					<g enable-background="new    ">
						<defs>
							<path id="SVGID_3_" enable-background="new    " d="M12.268,10.314l1.665-1.307c-0.091,0.072-0.18,0.149-0.266,0.232
								l-1.665,1.307C12.088,10.463,12.177,10.386,12.268,10.314z"/>
						</defs>
						<clipPath id="SVGID_4_">
							<use xlink:href="#SVGID_3_"  overflow="visible"/>
						</clipPath>
						<g clip-path="url(#SVGID_4_)" enable-background="new    ">
							<path d="M12.268,10.314l1.665-1.307c-0.091,0.072-0.18,0.149-0.266,0.232l-1.665,1.307
								C12.088,10.463,12.177,10.386,12.268,10.314"/>
						</g>
					</g>
					<g enable-background="new    ">
						<defs>
							<path id="SVGID_5_" enable-background="new    " d="M19.224,15.389c-0.07,0.063-0.141,0.124-0.214,0.18l-1.665,1.307
								c0.073-0.057,0.144-0.117,0.214-0.18C18.114,16.26,18.669,15.824,19.224,15.389z"/>
						</defs>
						<clipPath id="SVGID_6_">
							<use xlink:href="#SVGID_5_"  overflow="visible"/>
						</clipPath>
						<g clip-path="url(#SVGID_6_)" enable-background="new    ">
							<path fill="#7C221C" d="M18.094,16.098l1.665-1.307c-0.151,0.214-0.329,0.413-0.535,0.598
								c-0.07,0.063-0.141,0.124-0.214,0.18l-1.665,1.307c0.073-0.057,0.144-0.117,0.214-0.18
								C17.765,16.511,17.943,16.312,18.094,16.098"/>
						</g>
					</g>
					<g enable-background="new    ">
						<defs>
							<path id="SVGID_7_" enable-background="new    " d="M13.933,9.007c0.694-0.544,1.541-0.764,2.545-0.664
								c-0.555,0.436-1.11,0.871-1.665,1.307c-1.005-0.101-1.852,0.119-2.545,0.664C12.768,9.922,13.434,9.399,13.933,9.007z"/>
						</defs>
						<clipPath id="SVGID_8_">
							<use xlink:href="#SVGID_7_"  overflow="visible"/>
						</clipPath>
						<g clip-path="url(#SVGID_8_)" enable-background="new    ">
							<path fill="#7C221C" d="M12.268,10.314l1.665-1.307c0.205-0.16,0.422-0.292,0.653-0.396l-1.665,1.307
								C12.69,10.021,12.473,10.154,12.268,10.314"/>
							<path fill="#81231D" d="M12.921,9.917l1.665-1.307c0.108-0.049,0.22-0.092,0.334-0.128l-1.665,1.307
								C13.141,9.826,13.029,9.869,12.921,9.917"/>
							<path fill="#86241E" d="M13.255,9.789l1.665-1.307c0.091-0.029,0.185-0.054,0.28-0.076l-1.665,1.307
								C13.439,9.735,13.346,9.76,13.255,9.789"/>
							<path fill="#8B261F" d="M13.535,9.713l1.665-1.307c0.085-0.019,0.173-0.035,0.261-0.048l-1.665,1.307
								C13.707,9.678,13.62,9.694,13.535,9.713"/>
							<path fill="#8F2720" d="M13.796,9.666l1.665-1.307c0.084-0.012,0.169-0.021,0.256-0.028l-1.665,1.307
								C13.965,9.644,13.88,9.653,13.796,9.666"/>
							<path fill="#942821" d="M14.052,9.638l1.665-1.307c0.086-0.006,0.172-0.01,0.261-0.011l-1.665,1.307
								C14.225,9.628,14.138,9.631,14.052,9.638"/>
							<path fill="#992A23" d="M14.313,9.627l1.665-1.307c0.089-0.001,0.18,0.001,0.272,0.006l-1.665,1.307
								C14.493,9.628,14.402,9.626,14.313,9.627"/>
							<path fill="#9E2B24" d="M14.585,9.633l1.665-1.307c0.075,0.004,0.151,0.01,0.229,0.018c0.018,0.001,0.036,0.003,0.054,0.005
								l-1.665,1.307c-0.018-0.002-0.036-0.004-0.054-0.005C14.736,9.643,14.66,9.637,14.585,9.633"/>
						</g>
					</g>
					<g enable-background="new    ">
						<defs>
							<path id="SVGID_9_" enable-background="new    " d="M20.383,12.685c-0.002,1.107-0.385,2.011-1.159,2.704
								c-0.555,0.435-1.109,0.871-1.665,1.307c0.774-0.692,1.157-1.597,1.159-2.704C19.273,13.556,19.828,13.12,20.383,12.685z"/>
						</defs>
						<clipPath id="SVGID_10_">
							<use xlink:href="#SVGID_9_"  overflow="visible"/>
						</clipPath>
						<g clip-path="url(#SVGID_10_)" enable-background="new    ">
							<path fill="#A72E26" d="M18.716,13.827l1.665-1.307c0.002,0.054,0.002,0.109,0.002,0.165c0,0.036,0,0.072-0.001,0.108
								L18.717,14.1c0.001-0.036,0.001-0.072,0.001-0.108C18.718,13.937,18.718,13.881,18.716,13.827"/>
							<path fill="#A32C25" d="M18.717,14.1l1.665-1.307c-0.002,0.087-0.006,0.173-0.014,0.257l-1.665,1.307
								C18.71,14.272,18.715,14.187,18.717,14.1"/>
							<path fill="#9E2B24" d="M18.703,14.356l1.665-1.307c-0.006,0.082-0.016,0.162-0.027,0.241l-1.665,1.307
								C18.688,14.519,18.696,14.438,18.703,14.356"/>
							<path fill="#992A23" d="M18.676,14.598l1.665-1.307c-0.011,0.079-0.024,0.156-0.04,0.232l-1.665,1.307
								C18.651,14.753,18.665,14.676,18.676,14.598"/>
							<path fill="#942821" d="M18.636,14.83l1.665-1.307c-0.016,0.077-0.034,0.152-0.054,0.227l-1.665,1.307
								C18.602,14.982,18.62,14.906,18.636,14.83"/>
							<path fill="#8F2720" d="M18.582,15.056l1.665-1.307c-0.021,0.078-0.045,0.154-0.071,0.229l-1.665,1.307
								C18.537,15.21,18.561,15.134,18.582,15.056"/>
							<path fill="#8B261F" d="M18.511,15.285l1.665-1.307c-0.028,0.081-0.06,0.16-0.093,0.237l-1.665,1.307
								C18.452,15.445,18.483,15.366,18.511,15.285"/>
							<path fill="#86241E" d="M18.418,15.522l1.665-1.307c-0.039,0.088-0.081,0.175-0.127,0.26l-1.665,1.307
								C18.337,15.698,18.379,15.611,18.418,15.522"/>
							<path fill="#81231D" d="M18.291,15.782l1.665-1.307c-0.059,0.108-0.125,0.213-0.196,0.315l-1.665,1.307
								C18.166,15.996,18.231,15.891,18.291,15.782"/>
							<path fill="#7C221C" d="M18.094,16.098l1.665-1.307c-0.151,0.214-0.329,0.413-0.535,0.598
								c-0.07,0.063-0.141,0.124-0.214,0.18l-1.665,1.307c0.073-0.057,0.144-0.117,0.214-0.18
								C17.765,16.511,17.943,16.312,18.094,16.098"/>
						</g>
					</g>
					<g enable-background="new    ">
						<defs>
							<path id="SVGID_11_" enable-background="new    " d="M16.478,8.344c1.07,0.106,1.985,0.578,2.756,1.417
								c-0.555,0.435-1.11,0.871-1.665,1.307c-0.771-0.838-1.687-1.31-2.756-1.417C15.368,9.215,15.923,8.779,16.478,8.344z"/>
						</defs>
						<clipPath id="SVGID_12_">
							<use xlink:href="#SVGID_11_"  overflow="visible"/>
						</clipPath>
						<g clip-path="url(#SVGID_12_)" enable-background="new    ">
							<path fill="#9E2B24" d="M14.585,9.633l1.665-1.307c0.075,0.004,0.151,0.01,0.229,0.018c0.018,0.001,0.036,0.003,0.054,0.005
								l-1.665,1.307c-0.018-0.002-0.036-0.004-0.054-0.005C14.736,9.643,14.66,9.637,14.585,9.633"/>
							<path fill="#A32C25" d="M14.867,9.656l1.665-1.307c0.086,0.01,0.171,0.022,0.255,0.036l-1.665,1.307
								C15.039,9.678,14.953,9.666,14.867,9.656"/>
							<path fill="#A72E26" d="M15.123,9.692l1.665-1.307c0.082,0.014,0.162,0.03,0.241,0.048L15.363,9.74
								C15.284,9.722,15.204,9.706,15.123,9.692"/>
							<path fill="#AC2F27" d="M15.363,9.74l1.665-1.307c0.078,0.019,0.156,0.039,0.233,0.062l-1.665,1.307
								C15.52,9.779,15.442,9.759,15.363,9.74"/>
							<path fill="#B13028" d="M15.597,9.802l1.665-1.307c0.078,0.022,0.154,0.048,0.23,0.075l-1.665,1.307
								C15.751,9.85,15.674,9.824,15.597,9.802"/>
							<path fill="#B63129" d="M15.827,9.877l1.665-1.307c0.079,0.028,0.157,0.059,0.233,0.092l-1.665,1.307
								C15.983,9.936,15.906,9.905,15.827,9.877"/>
							<path fill="#BA332A" d="M16.061,9.969l1.665-1.307c0.083,0.036,0.164,0.074,0.244,0.116l-1.665,1.307
								C16.224,10.043,16.143,10.005,16.061,9.969"/>
							<path fill="#BF342B" d="M16.304,10.085l1.665-1.307c0.091,0.047,0.181,0.097,0.269,0.151l-1.665,1.307
								C16.485,10.182,16.396,10.132,16.304,10.085"/>
							<path fill="#C4352C" d="M16.574,10.236l1.665-1.307c0.111,0.068,0.22,0.142,0.327,0.222L16.9,10.458
								C16.793,10.378,16.685,10.305,16.574,10.236"/>
							<path fill="#C9372D" d="M16.9,10.458l1.665-1.307c0.182,0.137,0.358,0.29,0.527,0.459l-1.665,1.307
								C17.258,10.748,17.083,10.595,16.9,10.458"/>
							<path fill="#CE382E" d="M17.427,10.917l1.665-1.307c0.048,0.048,0.096,0.098,0.143,0.149
								c0.167,0.182,0.317,0.371,0.448,0.566l-1.665,1.307c-0.131-0.195-0.28-0.384-0.448-0.566
								C17.522,11.016,17.475,10.966,17.427,10.917"/>
						</g>
					</g>
					<g>
						<path fill="#AC2F27" d="M14.799,17.587c-1.086-0.108-2.011-0.598-2.773-1.461c-0.754-0.854-1.134-1.834-1.132-2.915
							c0.002-1.063,0.377-1.951,1.108-2.665c0.74-0.713,1.674-1.009,2.812-0.896c1.069,0.106,1.985,0.578,2.756,1.417
							c0.771,0.837,1.15,1.81,1.148,2.925c-0.002,1.107-0.385,2.011-1.159,2.704C16.785,17.396,15.868,17.693,14.799,17.587z"/>
					</g>
					<g enable-background="new    ">
						<defs>
							<path id="SVGID_13_" enable-background="new    " d="M19.234,9.76c0.771,0.837,1.15,1.81,1.148,2.925
								c-0.555,0.435-1.109,0.871-1.665,1.307c0.002-1.115-0.378-2.087-1.148-2.925C18.125,10.631,18.68,10.195,19.234,9.76z"/>
						</defs>
						<clipPath id="SVGID_14_">
							<use xlink:href="#SVGID_13_"  overflow="visible"/>
						</clipPath>
						<g clip-path="url(#SVGID_14_)" enable-background="new    ">
							<path fill="#CE382E" d="M17.427,10.917l1.665-1.307c0.048,0.048,0.096,0.098,0.143,0.149
								c0.167,0.182,0.317,0.371,0.448,0.566l-1.665,1.307c-0.131-0.195-0.28-0.384-0.448-0.566
								C17.522,11.016,17.475,10.966,17.427,10.917"/>
							<path fill="#C9372D" d="M18.018,11.633l1.665-1.307c0.116,0.173,0.217,0.351,0.304,0.534l-1.665,1.307
								C18.234,11.983,18.133,11.806,18.018,11.633"/>
							<path fill="#C4352C" d="M18.322,12.167l1.665-1.307c0.052,0.11,0.1,0.222,0.141,0.335l-1.665,1.307
								C18.421,12.388,18.374,12.276,18.322,12.167"/>
							<path fill="#BF342B" d="M18.463,12.502l1.665-1.307c0.035,0.094,0.066,0.188,0.093,0.285l-1.665,1.307
								C18.529,12.69,18.498,12.596,18.463,12.502"/>
							<path fill="#BA332A" d="M18.556,12.787l1.665-1.307c0.025,0.087,0.047,0.175,0.066,0.264l-1.665,1.307
								C18.603,12.962,18.581,12.874,18.556,12.787"/>
							<path fill="#B63129" d="M18.622,13.051l1.665-1.307c0.018,0.084,0.034,0.169,0.047,0.255l-1.665,1.307
								C18.656,13.22,18.64,13.135,18.622,13.051"/>
							<path fill="#B13028" d="M18.669,13.306L20.333,12c0.013,0.085,0.023,0.17,0.031,0.257L18.7,13.563
								C18.692,13.477,18.682,13.391,18.669,13.306"/>
							<path fill="#AC2F27" d="M18.7,13.563l1.665-1.307c0.008,0.087,0.013,0.175,0.016,0.264l-1.665,1.307
								C18.713,13.738,18.708,13.65,18.7,13.563"/>
							<path fill="#A72E26" d="M18.716,13.827l1.665-1.307c0.002,0.054,0.002,0.109,0.002,0.165c0,0.036,0,0.072-0.001,0.108
								L18.717,14.1c0.001-0.036,0.001-0.072,0.001-0.108C18.718,13.937,18.718,13.881,18.716,13.827"/>
						</g>
					</g>
					<g enable-background="new    ">
						<defs>
							<path id="SVGID_15_" enable-background="new    " d="M11.958,9.927l1.665-1.307c0.784-0.615,1.744-0.872,2.856-0.761
								c1.188,0.119,2.223,0.654,3.086,1.588c0.856,0.941,1.295,2.04,1.292,3.285c-0.002,1.236-0.445,2.256-1.304,3.035
								c-0.076,0.069-0.153,0.135-0.232,0.197l-1.665,1.307c0.079-0.062,0.156-0.128,0.232-0.197
								c0.859-0.779,1.302-1.798,1.304-3.035c0.002-1.245-0.437-2.344-1.292-3.285c-0.864-0.934-1.898-1.469-3.086-1.588
								C13.702,9.055,12.742,9.312,11.958,9.927z"/>
						</defs>
						<clipPath id="SVGID_16_">
							<use xlink:href="#SVGID_15_"  overflow="visible"/>
						</clipPath>
						<g clip-path="url(#SVGID_16_)" enable-background="new    ">
							<path d="M11.958,9.927l1.665-1.307c0.234-0.184,0.485-0.336,0.75-0.456l-1.665,1.307C12.442,9.591,12.192,9.743,11.958,9.927
								"/>
							<path d="M12.708,9.472l1.665-1.307c0.125-0.056,0.252-0.105,0.383-0.147l-1.665,1.307C12.96,9.367,12.832,9.416,12.708,9.472
								"/>
							<path d="M13.091,9.325l1.665-1.307c0.104-0.033,0.211-0.062,0.319-0.086L13.41,9.238C13.302,9.263,13.195,9.292,13.091,9.325
								"/>
							<path d="M13.41,9.238l1.665-1.307c0.097-0.021,0.195-0.04,0.294-0.054l-1.665,1.307C13.604,9.199,13.507,9.217,13.41,9.238"
								/>
							<path d="M13.705,9.184l1.665-1.307c0.094-0.013,0.189-0.024,0.286-0.031L13.99,9.153C13.894,9.16,13.798,9.171,13.705,9.184"
								/>
							<path d="M13.99,9.153l1.665-1.307c0.094-0.007,0.19-0.011,0.287-0.012l-1.665,1.307C14.18,9.142,14.084,9.146,13.99,9.153"/>
							<path d="M14.277,9.141l1.665-1.307c0.097-0.001,0.195,0.001,0.294,0.006l-1.665,1.307C14.472,9.143,14.374,9.14,14.277,9.141
								"/>
							<path d="M14.571,9.147l1.665-1.307c0.081,0.004,0.162,0.011,0.244,0.019c0.02,0.002,0.039,0.004,0.059,0.006l-1.665,1.307
								c-0.02-0.002-0.039-0.004-0.059-0.006C14.732,9.158,14.651,9.152,14.571,9.147"/>
							<path d="M14.873,9.172l1.665-1.307c0.094,0.011,0.188,0.024,0.28,0.04l-1.665,1.307C15.061,9.196,14.967,9.183,14.873,9.172"
								/>
							<path d="M15.152,9.212l1.665-1.307c0.09,0.015,0.179,0.033,0.267,0.054l-1.665,1.307C15.331,9.245,15.242,9.227,15.152,9.212
								"/>
							<path d="M15.419,9.266l1.665-1.307c0.087,0.02,0.174,0.043,0.259,0.068l-1.665,1.307C15.593,9.309,15.507,9.286,15.419,9.266
								"/>
							<path d="M15.679,9.333l1.665-1.307c0.087,0.026,0.173,0.054,0.259,0.084l-1.665,1.307
								C15.852,9.388,15.766,9.359,15.679,9.333"/>
							<path d="M15.938,9.418l1.665-1.307c0.089,0.032,0.177,0.067,0.263,0.104l-1.665,1.307C16.114,9.485,16.026,9.45,15.938,9.418
								"/>
							<path d="M16.201,9.522l1.665-1.307c0.094,0.041,0.186,0.084,0.277,0.131l-1.665,1.307
								C16.387,9.606,16.294,9.563,16.201,9.522"/>
							<path d="M16.478,9.653l1.665-1.307c0.104,0.053,0.206,0.111,0.306,0.172l-1.665,1.307
								C16.683,9.764,16.581,9.707,16.478,9.653"/>
							<path d="M16.783,9.826l1.665-1.307c0.126,0.078,0.25,0.162,0.372,0.252l-1.665,1.307C17.034,9.987,16.91,9.903,16.783,9.826"
								/>
							<path d="M17.155,10.078l1.665-1.307c0.207,0.154,0.405,0.327,0.596,0.519l-1.665,1.307
								C17.56,10.405,17.361,10.232,17.155,10.078"/>
							<path d="M17.75,10.597l1.665-1.307c0.051,0.051,0.101,0.103,0.15,0.157c0.184,0.202,0.348,0.411,0.493,0.628l-1.665,1.307
								c-0.145-0.217-0.31-0.426-0.493-0.628C17.852,10.7,17.801,10.648,17.75,10.597"/>
							<path d="M18.394,11.382l1.665-1.307c0.133,0.199,0.25,0.403,0.35,0.614l-1.665,1.307
								C18.644,11.785,18.527,11.581,18.394,11.382"/>
							<path d="M18.744,11.996l1.665-1.307c0.06,0.126,0.114,0.254,0.162,0.385l-1.665,1.307
								C18.858,12.25,18.804,12.122,18.744,11.996"/>
							<path d="M18.906,12.38l1.665-1.307c0.04,0.106,0.075,0.214,0.106,0.324l-1.665,1.307
								C18.981,12.595,18.946,12.487,18.906,12.38"/>
							<path d="M19.012,12.704l1.665-1.307c0.028,0.098,0.053,0.197,0.075,0.298l-1.665,1.307
								C19.065,12.901,19.04,12.802,19.012,12.704"/>
							<path d="M19.086,13.002l1.665-1.307c0.02,0.094,0.038,0.189,0.052,0.286l-1.665,1.307
								C19.125,13.191,19.107,13.096,19.086,13.002"/>
							<path d="M19.139,13.288l1.665-1.307c0.014,0.093,0.025,0.188,0.034,0.284l-1.665,1.307
								C19.165,13.476,19.153,13.381,19.139,13.288"/>
							<path d="M19.173,13.572l1.665-1.307c0.008,0.095,0.014,0.192,0.018,0.289l-1.665,1.307
								C19.188,13.764,19.182,13.667,19.173,13.572"/>
							<path d="M19.191,13.861l1.665-1.307c0.002,0.059,0.003,0.119,0.002,0.178c0,0.039,0,0.078-0.001,0.117l-1.665,1.307
								c0.001-0.039,0.001-0.078,0.001-0.117C19.193,13.979,19.193,13.92,19.191,13.861"/>
							<path d="M19.192,14.156l1.665-1.307c-0.002,0.095-0.007,0.188-0.015,0.28l-1.665,1.307
								C19.185,14.344,19.189,14.251,19.192,14.156"/>
							<path d="M19.177,14.437l1.665-1.307c-0.008,0.09-0.018,0.179-0.03,0.266l-1.665,1.307
								C19.16,14.615,19.169,14.526,19.177,14.437"/>
							<path d="M19.147,14.703l1.665-1.307c-0.012,0.087-0.027,0.173-0.044,0.258l-1.665,1.307
								C19.12,14.876,19.135,14.79,19.147,14.703"/>
							<path d="M19.103,14.96l1.665-1.307c-0.018,0.086-0.038,0.171-0.061,0.255l-1.665,1.307
								C19.064,15.132,19.085,15.047,19.103,14.96"/>
							<path d="M19.042,15.216l1.665-1.307c-0.024,0.087-0.051,0.174-0.08,0.258l-1.665,1.307
								C18.991,15.39,19.018,15.303,19.042,15.216"/>
							<path d="M18.961,15.474l1.665-1.307c-0.032,0.092-0.067,0.182-0.106,0.271l-1.665,1.306
								C18.894,15.656,18.929,15.566,18.961,15.474"/>
							<path d="M18.855,15.745l1.665-1.307c-0.044,0.102-0.093,0.201-0.146,0.298l-1.665,1.307
								C18.762,15.945,18.811,15.846,18.855,15.745"/>
							<path d="M18.709,16.042l1.665-1.307c-0.068,0.125-0.144,0.246-0.226,0.363l-1.665,1.307
								C18.566,16.288,18.641,16.167,18.709,16.042"/>
							<path d="M18.483,16.405l1.665-1.307c-0.168,0.239-0.367,0.462-0.594,0.668c-0.076,0.069-0.153,0.135-0.232,0.197
								l-1.665,1.307c0.079-0.062,0.156-0.128,0.232-0.197C18.117,16.868,18.315,16.645,18.483,16.405"/>
						</g>
					</g>
					<g>
						<path d="M14.798,18.063c-1.214-0.121-2.257-0.666-3.104-1.633c-0.847-0.958-1.27-2.055-1.268-3.266
							c0.002-1.184,0.412-2.189,1.237-2.981c0.833-0.799,1.895-1.142,3.151-1.017c1.188,0.119,2.223,0.654,3.086,1.588
							c0.856,0.941,1.295,2.04,1.292,3.285c-0.002,1.236-0.445,2.256-1.304,3.035C17.031,17.853,15.986,18.181,14.798,18.063z
							 M12.002,10.546c-0.731,0.714-1.106,1.602-1.108,2.665c-0.002,1.081,0.378,2.061,1.132,2.915
							c0.762,0.863,1.687,1.353,2.773,1.461c1.069,0.106,1.986-0.191,2.76-0.892c0.774-0.692,1.157-1.597,1.159-2.704
							c0.002-1.115-0.378-2.087-1.148-2.925c-0.771-0.838-1.687-1.31-2.756-1.417C13.676,9.537,12.742,9.833,12.002,10.546"/>
					</g>
				</g>
			</g>
		</g>
	</g>
	<g>
		<g>
			<polygon fill="#FFFFFF" points="84.243,57.907 84.243,50.287 90.057,50.287 90.057,18.599 84.243,18.599 84.243,10.979 
				104.622,10.979 104.622,18.599 99.098,18.599 99.098,50.287 110.858,50.287 110.858,35.009 119.188,35.009 119.188,57.907 			"/>
			<path d="M103.622,11.979v5.62h-5.523v33.688h13.76V36.009h6.33v20.897H85.243v-5.62h5.814V17.599h-5.814v-5.62H103.622
				 M105.622,9.979h-2H85.243h-2v2v5.62v2h2h3.814v29.688h-3.814h-2v2v5.62v2h2h32.945h2v-2V36.009v-2h-2h-6.33h-2v2v13.277h-9.76
				V19.599h3.523h2v-2v-5.62V9.979L105.622,9.979z"/>
		</g>
		<g>
			<path fill="#FFFFFF" d="M138.503,58.811c-5.009,0-9.355-1.589-12.917-4.722c-3.601-3.167-5.427-7.479-5.427-12.815
				c0-5.067,1.774-9.3,5.274-12.583c3.481-3.266,7.542-4.921,12.07-4.921c4.431,0,8.496,1.611,12.082,4.79
				c3.613,3.205,5.514,7.997,5.648,14.244l0.022,1.021h-26.123c0.473,2.145,1.434,3.88,2.919,5.281
				c1.718,1.621,3.871,2.408,6.581,2.408c3.982,0,7.045-1.555,9.366-4.755l0.474-0.654l7.237,3.188l-0.636,0.985
				c-1.86,2.882-4.315,5.052-7.296,6.451C144.837,58.111,141.716,58.811,138.503,58.811z M146.601,37.367
				c-0.525-1.525-1.468-2.946-2.814-4.237c-1.674-1.605-3.677-2.386-6.123-2.386c-2.215,0-4.053,0.701-5.621,2.142
				c-1.316,1.211-2.19,2.685-2.652,4.481H146.601z"/>
			<path d="M137.502,24.77c4.198,0,8.005,1.513,11.417,4.538c3.412,3.025,5.184,7.531,5.313,13.517h-26.291
				c0.388,2.885,1.528,5.222,3.424,7.009c1.895,1.787,4.316,2.681,7.267,2.681c4.285,0,7.677-1.723,10.174-5.168l5.426,2.39
				c-1.766,2.735-4.059,4.764-6.879,6.088c-2.821,1.324-5.771,1.986-8.85,1.986c-4.78,0-8.866-1.491-12.257-4.473
				c-3.392-2.982-5.088-7.003-5.088-12.064c0-4.801,1.652-8.753,4.958-11.854S133.217,24.77,137.502,24.77 M128.168,38.367h19.734
				c-0.432-2.196-1.572-4.183-3.423-5.959c-1.853-1.776-4.124-2.665-6.815-2.665c-2.454,0-4.554,0.802-6.298,2.406
				S128.555,35.827,128.168,38.367 M137.502,22.77c-4.79,0-9.081,1.747-12.754,5.192c-3.709,3.479-5.59,7.958-5.59,13.312
				c0,5.637,1.94,10.201,5.767,13.566c3.75,3.298,8.318,4.971,13.578,4.971c3.361,0,6.625-0.732,9.7-2.176
				c3.152-1.479,5.746-3.772,7.71-6.814l1.272-1.97l-2.146-0.945l-5.426-2.39l-1.478-0.651l-0.948,1.307
				c-2.118,2.921-4.917,4.342-8.555,4.342c-2.443,0-4.371-0.699-5.894-2.136c-1.044-0.984-1.801-2.158-2.287-3.554h23.781h2.044
				l-0.044-2.043c-0.141-6.537-2.154-11.574-5.985-14.971C146.473,24.466,142.185,22.77,137.502,22.77L137.502,22.77z
				 M130.78,36.367c0.447-1.056,1.09-1.964,1.94-2.745c1.374-1.264,2.991-1.878,4.944-1.878c2.175,0,3.952,0.689,5.431,2.108
				c0.837,0.804,1.494,1.637,1.977,2.516H130.78L130.78,36.367z"/>
		</g>
		<g>
			<path fill="#FFFFFF" d="M173.063,58.423c-2.764,0-5.167-0.506-7.17-1.507v0.991H158.4V45.184h7.492v1.964
				c0.17,1.151,0.804,2.087,1.937,2.86c1.213,0.828,2.681,1.248,4.362,1.248c1.792,0,3.221-0.302,4.245-0.898
				c0.872-0.508,1.278-1.146,1.278-2.01c0-0.828-0.298-1.367-0.965-1.748c-0.6-0.342-2.039-0.868-5.494-1.427
				c-4.545-0.767-7.724-2-9.725-3.77c-2.056-1.817-3.098-4.195-3.098-7.067c0-2.895,1.125-5.349,3.345-7.296
				c2.18-1.913,5.063-2.882,8.571-2.882c2.458,0,4.678,0.41,6.623,1.22v-0.736h7.459v12.368h-7.459v-2.602
				c-1.465-2.117-3.507-3.147-6.234-3.147c-1.406,0-2.561,0.296-3.432,0.88c-0.768,0.514-1.125,1.138-1.125,1.963
				c0,1,0.433,1.335,0.856,1.53c0.598,0.275,2.111,0.729,5.921,1.321c3.142,0.488,5.466,1.052,7.105,1.724
				c1.725,0.707,3.172,1.892,4.302,3.522c1.137,1.641,1.712,3.566,1.712,5.723c0,3.222-1.256,5.82-3.732,7.724
				C179.949,57.49,176.825,58.423,173.063,58.423z"/>
			<path d="M170.35,25.157c2.951,0,5.492,0.607,7.623,1.822v-1.337h5.459v10.368h-5.459v-1.905c-1.658-2.563-4.07-3.844-7.234-3.844
				c-1.615,0-2.945,0.35-3.988,1.05c-1.045,0.7-1.568,1.631-1.568,2.794c0,1.184,0.48,1.997,1.438,2.438
				c0.959,0.441,3.021,0.909,6.186,1.401c3.037,0.472,5.33,1.025,6.881,1.661c1.551,0.636,2.836,1.691,3.859,3.167
				c1.021,1.476,1.533,3.193,1.533,5.153c0,2.908-1.113,5.218-3.342,6.931s-5.119,2.568-8.674,2.568
				c-3.338,0-6.061-0.758-8.17-2.274v1.757H159.4V46.184h5.492v1.034c0.193,1.464,0.984,2.67,2.373,3.617
				c1.389,0.948,3.031,1.421,4.926,1.421c1.98,0,3.563-0.344,4.748-1.034c1.184-0.689,1.775-1.647,1.775-2.875
				c0-1.184-0.488-2.056-1.469-2.616c-0.98-0.56-2.924-1.075-5.83-1.546c-4.309-0.727-7.383-1.904-9.223-3.531
				c-1.84-1.626-2.76-3.732-2.76-6.318c0-2.607,1.002-4.788,3.004-6.544S167.076,25.157,170.35,25.157 M170.35,23.157
				c-3.757,0-6.863,1.053-9.231,3.131c-2.444,2.145-3.685,4.853-3.685,8.048c0,3.172,1.155,5.802,3.436,7.817
				c0.873,0.772,1.945,1.448,3.229,2.031H159.4h-2v2v10.723v2h2h5.492h2v-0.476c1.816,0.66,3.88,0.992,6.17,0.992
				c3.988,0,7.317-1.003,9.893-2.982c2.735-2.103,4.123-4.968,4.123-8.517c0-2.364-0.636-4.481-1.889-6.292
				c-1.117-1.61-2.518-2.827-4.172-3.624h2.414h2v-2V25.642v-2h-2h-5.459h-2v0.312C174.26,23.424,172.379,23.157,170.35,23.157
				L170.35,23.157z M175.973,36.478c-0.871-0.18-1.823-0.35-2.861-0.51c-3.89-0.606-5.213-1.038-5.656-1.242
				c-0.158-0.073-0.273-0.126-0.273-0.622c0-0.406,0.116-0.753,0.682-1.132c0.704-0.472,1.671-0.711,2.875-0.711
				c2.296,0,3.974,0.788,5.234,2.469v1.28V36.478L175.973,36.478z M166.893,47.071v-0.888v-0.973
				c1.254,0.372,2.648,0.687,4.19,0.947c3.494,0.566,4.739,1.064,5.172,1.311c0.312,0.178,0.46,0.355,0.46,0.879
				c0,0.35-0.061,0.726-0.781,1.146c-0.87,0.506-2.129,0.762-3.742,0.762c-1.498,0-2.74-0.351-3.799-1.073
				C167.268,48.415,166.985,47.629,166.893,47.071L166.893,47.071z"/>
		</g>
		<g>
			<path fill="#FFFFFF" d="M203.359,58.423c-2.765,0-5.169-0.506-7.172-1.507v0.991h-7.49V45.184h7.49v1.964
				c0.17,1.15,0.804,2.086,1.938,2.86c1.23,0.839,2.656,1.248,4.36,1.248c1.794,0,3.222-0.302,4.245-0.898
				c0.874-0.508,1.28-1.146,1.28-2.01c0-0.827-0.298-1.366-0.966-1.749c-0.599-0.342-2.039-0.867-5.495-1.426
				c-4.543-0.767-7.722-2-9.723-3.77c-2.057-1.816-3.1-4.194-3.1-7.067c0-2.895,1.125-5.349,3.345-7.296
				c2.183-1.913,5.066-2.882,8.573-2.882c2.457,0,4.677,0.41,6.623,1.221v-0.736h7.457v12.368h-7.457v-2.602
				c-1.465-2.117-3.508-3.147-6.236-3.147c-1.404,0-2.56,0.296-3.432,0.881c-0.767,0.513-1.123,1.137-1.123,1.963
				c0,1.001,0.433,1.335,0.855,1.53c0.598,0.275,2.109,0.729,5.921,1.321c3.145,0.489,5.469,1.053,7.105,1.724
				c1.727,0.708,3.174,1.893,4.302,3.522c1.137,1.639,1.713,3.564,1.713,5.723c0,3.221-1.257,5.819-3.734,7.724
				C210.244,57.49,207.121,58.423,203.359,58.423z"/>
			<path d="M200.646,25.157c2.949,0,5.49,0.607,7.623,1.822v-1.337h5.457v10.368h-5.457v-1.905c-1.658-2.563-4.07-3.844-7.236-3.844
				c-1.615,0-2.943,0.35-3.988,1.05s-1.566,1.631-1.566,2.794c0,1.184,0.479,1.997,1.438,2.438c0.957,0.441,3.02,0.909,6.186,1.401
				c3.035,0.472,5.33,1.025,6.879,1.661c1.551,0.636,2.838,1.691,3.859,3.167c1.023,1.476,1.535,3.193,1.535,5.153
				c0,2.908-1.115,5.218-3.344,6.931s-5.119,2.568-8.672,2.568c-3.338,0-6.063-0.758-8.172-2.274v1.757h-5.49V46.184h5.49v1.034
				c0.193,1.464,0.986,2.67,2.375,3.617c1.389,0.948,3.029,1.421,4.924,1.421c1.982,0,3.564-0.344,4.748-1.034
				c1.186-0.689,1.777-1.647,1.777-2.875c0-1.184-0.49-2.056-1.469-2.616c-0.98-0.56-2.924-1.075-5.832-1.546
				c-4.307-0.727-7.381-1.904-9.221-3.531c-1.842-1.626-2.762-3.732-2.762-6.318c0-2.607,1.002-4.788,3.004-6.544
				C194.736,26.035,197.373,25.157,200.646,25.157 M200.646,23.157c-3.756,0-6.862,1.053-9.232,3.13
				c-2.445,2.146-3.686,4.854-3.686,8.048c0,3.173,1.156,5.803,3.438,7.817c0.874,0.772,1.945,1.447,3.229,2.03h-4.697h-2v2v10.723
				v2h2h5.49h2v-0.476c1.817,0.66,3.881,0.992,6.172,0.992c3.987,0,7.315-1.003,9.891-2.982c2.737-2.104,4.125-4.969,4.125-8.517
				c0-2.366-0.637-4.483-1.892-6.293c-1.113-1.607-2.514-2.824-4.171-3.622h2.414h2v-2V25.642v-2h-2h-5.457h-2v0.313
				C204.556,23.424,202.675,23.157,200.646,23.157L200.646,23.157z M206.27,36.479c-0.871-0.18-1.823-0.35-2.861-0.511
				c-3.892-0.606-5.213-1.038-5.654-1.241c-0.16-0.074-0.275-0.127-0.275-0.623c0-0.407,0.115-0.755,0.68-1.132
				c0.705-0.472,1.672-0.711,2.875-0.711c2.297,0,3.976,0.788,5.236,2.469v1.28V36.479L206.27,36.479z M197.188,47.071v-0.888V45.21
				c1.254,0.372,2.648,0.687,4.19,0.947c3.496,0.566,4.741,1.064,5.174,1.311c0.305,0.174,0.46,0.359,0.46,0.879
				c0,0.35-0.061,0.726-0.782,1.146c-0.87,0.506-2.129,0.763-3.743,0.763c-1.496,0-2.738-0.351-3.797-1.073
				C197.563,48.414,197.28,47.629,197.188,47.071L197.188,47.071z"/>
		</g>
		<g>
			<path fill="#FFFFFF" d="M236.24,58.811c-4.901,0-9.077-1.661-12.41-4.938c-3.337-3.281-5.029-7.52-5.029-12.6
				c0-5.083,1.71-9.317,5.083-12.587c3.366-3.263,7.523-4.917,12.356-4.917c4.742,0,8.875,1.629,12.282,4.843
				c3.422,3.23,5.157,7.49,5.157,12.662s-1.729,9.437-5.14,12.676C245.145,57.175,241.006,58.811,236.24,58.811z M236.24,31.712
				c-2.618,0-4.714,0.889-6.404,2.718c-1.711,1.851-2.543,4.084-2.543,6.828c0,2.841,0.853,5.095,2.605,6.888
				c1.746,1.789,3.82,2.658,6.342,2.658c2.559,0,4.642-0.877,6.367-2.682c1.736-1.818,2.58-4.063,2.58-6.864
				c0-2.818-0.857-5.066-2.622-6.872C240.809,32.587,238.739,31.712,236.24,31.712z"/>
			<path d="M236.24,24.77c4.5,0,8.365,1.523,11.596,4.57c3.229,3.047,4.844,7.025,4.844,11.934c0,4.91-1.609,8.894-4.828,11.951
				c-3.219,3.058-7.09,4.586-11.611,4.586c-4.65,0-8.555-1.55-11.709-4.651s-4.73-7.063-4.73-11.886
				c0-4.823,1.592-8.779,4.779-11.87C227.768,26.315,231.654,24.77,236.24,24.77 M236.24,51.804c2.82,0,5.184-0.997,7.09-2.991
				c1.904-1.994,2.857-4.512,2.857-7.555c0-3.064-0.969-5.587-2.906-7.571c-1.938-1.983-4.285-2.975-7.041-2.975
				c-2.887,0-5.266,1.013-7.139,3.039c-1.873,2.026-2.809,4.528-2.809,7.506c0,3.086,0.963,5.615,2.891,7.587
				C231.109,50.817,233.463,51.804,236.24,51.804 M236.24,22.77c-5.102,0-9.493,1.749-13.052,5.199
				c-3.575,3.466-5.388,7.942-5.388,13.306c0,5.358,1.793,9.837,5.328,13.313c3.527,3.467,7.938,5.225,13.111,5.225
				c5.031,0,9.401-1.728,12.989-5.136c3.616-3.436,5.45-7.944,5.45-13.401c0-5.458-1.841-9.962-5.471-13.389
				C245.609,24.491,241.246,22.77,236.24,22.77L236.24,22.77z M236.24,49.804c-2.237,0-4.078-0.771-5.626-2.356
				c-1.563-1.598-2.321-3.623-2.321-6.19c0-2.479,0.745-4.491,2.277-6.149c1.491-1.612,3.346-2.396,5.67-2.396
				c2.216,0,4.051,0.776,5.61,2.373c1.572,1.609,2.337,3.629,2.337,6.173c0,2.531-0.754,4.551-2.304,6.174
				C240.357,49.027,238.512,49.804,236.24,49.804L236.24,49.804z"/>
		</g>
		<g>
			<path fill="#FFFFFF" d="M280.49,57.907V36.461c0-2.836-0.544-3.696-0.777-3.934c-0.52-0.526-1.143-0.783-1.904-0.783
				c-2.374,0-5.133,1.167-8.205,3.468v15.235h5.395v7.458h-19.021v-7.458h5.49V32.1h-5.49v-7.458h13.627v2.889
				c3.501-2.239,6.787-3.373,9.787-3.373c2.229,0,4.116,0.547,5.609,1.626c1.503,1.088,2.503,2.45,2.973,4.049
				c0.44,1.498,0.654,3.582,0.654,6.371v14.245h5.266v7.458H280.49z"/>
			<path d="M279.391,25.157c2.025,0,3.699,0.479,5.023,1.437c1.324,0.958,2.191,2.132,2.6,3.521
				c0.408,1.389,0.613,3.419,0.613,6.088v15.245h5.266v5.458H281.49V36.461c0-2.368-0.355-3.913-1.064-4.635
				c-0.711-0.721-1.584-1.082-2.617-1.082c-2.713,0-5.781,1.324-9.205,3.973v16.731h5.395v5.458h-17.021v-5.458h5.49V31.1h-5.49
				v-5.458h11.627v3.779C272.545,26.578,276.141,25.157,279.391,25.157 M279.391,23.157c-2.743,0-5.688,0.875-8.787,2.608v-0.124v-2
				h-2h-11.627h-2v2V31.1v2h2h3.49v16.348h-3.49h-2v2v5.458v2h2h17.021h2v-2v-5.458v-2h-2h-3.395v-13.73
				c2.73-1.974,5.151-2.974,7.205-2.974c0.5,0,0.857,0.146,1.193,0.486c-0.001,0,0.488,0.59,0.488,3.23v20.445v2h2h11.402h2v-2
				v-5.458v-2h-2h-3.266V36.203c0-2.886-0.228-5.062-0.694-6.652c-0.534-1.816-1.66-3.356-3.346-4.577
				C283.919,23.769,281.835,23.157,279.391,23.157L279.391,23.157z"/>
		</g>
		<g>
			<path fill="#FFFFFF" d="M330.326,66.563c-2.304,0-5.331-0.923-9.254-2.821c-3.074-1.481-5.492-2.232-7.186-2.232
				c-1.674,0-2.964,0.437-3.943,1.334l-0.845,0.773l-3.016-4.344l0.543-0.59c0.787-0.854,1.713-1.548,2.769-2.076
				c-2.648-1.171-4.98-2.767-6.958-4.762c-2.605-2.628-4.451-5.507-5.485-8.555c-1.021-3.009-1.539-6.046-1.539-9.026
				c0-6.584,2.21-12.286,6.568-16.945c4.376-4.679,10.262-7.051,17.492-7.051c7.223,0,13.156,2.306,17.638,6.855
				c4.478,4.544,6.747,10.344,6.747,17.239c0,3.651-0.712,7.178-2.114,10.484c-1.417,3.342-3.868,6.373-7.287,9.009
				c-2.46,1.898-5.175,3.22-8.104,3.948c2.436,0.884,4.379,1.333,5.782,1.333c0.533,0,1.261-0.091,2.161-0.271l1.868-0.374
				l-3.359,7.807l-0.539,0.09C331.568,66.504,330.916,66.563,330.326,66.563z M319.408,18.244c-4.326,0-7.76,1.486-10.495,4.544
				c-2.724,3.047-4.104,6.909-4.104,11.478c0,4.663,1.374,8.615,4.084,11.749c2.711,3.136,6.183,4.661,10.613,4.661
				c4.39,0,7.895-1.563,10.715-4.779c2.813-3.208,4.24-7.1,4.24-11.565c0-4.499-1.448-8.351-4.306-11.451
				C327.279,19.76,323.765,18.244,319.408,18.244z"/>
			<path d="M319.473,11.269c6.977,0,12.619,2.186,16.926,6.557c4.307,4.372,6.459,9.883,6.459,16.537
				c0,3.532-0.678,6.896-2.035,10.093c-1.355,3.198-3.682,6.067-6.977,8.607c-3.293,2.541-7.008,3.983-11.143,4.328l1.324,0.582
				c3.51,1.442,6.213,2.164,8.107,2.164c0.602,0,1.389-0.097,2.357-0.291l-2.391,5.556c-0.645,0.107-1.238,0.162-1.775,0.162
				c-2.133,0-5.07-0.908-8.818-2.721c-3.229-1.555-5.77-2.332-7.621-2.332c-1.918,0-3.457,0.532-4.619,1.597l-1.906-2.746
				c1.27-1.378,2.928-2.283,4.975-2.713c-3.617-1.141-6.682-2.977-9.189-5.507s-4.258-5.254-5.248-8.172
				c-0.99-2.917-1.486-5.819-1.486-8.705c0-6.352,2.1-11.773,6.299-16.262C306.91,13.513,312.496,11.269,319.473,11.269
				 M319.506,51.674c4.65,0,8.473-1.706,11.467-5.119c2.992-3.413,4.488-7.488,4.488-12.225c0-4.78-1.523-8.823-4.57-12.128
				c-3.047-3.305-6.875-4.958-11.482-4.958c-4.586,0-8.332,1.626-11.24,4.877c-2.906,3.251-4.359,7.299-4.359,12.144
				c0,4.931,1.441,9.065,4.328,12.403C311.021,50.006,314.811,51.674,319.506,51.674 M319.473,9.269
				c-7.519,0-13.649,2.479-18.223,7.368c-4.537,4.851-6.838,10.782-6.838,17.628c0,3.089,0.536,6.234,1.593,9.347
				c1.083,3.193,3.008,6.2,5.721,8.937c1.642,1.656,3.515,3.047,5.6,4.162c-0.516,0.385-0.994,0.817-1.435,1.295l-1.086,1.179
				l0.914,1.317l1.906,2.746l1.306,1.881l1.688-1.547c0.786-0.721,1.855-1.072,3.268-1.072c1.06,0,3.092,0.37,6.753,2.134
				c4.06,1.964,7.229,2.919,9.687,2.919c0.645,0,1.353-0.063,2.104-0.189l1.076-0.179l0.432-1.003l2.391-5.556l1.506-3.499
				l-3.735,0.748c-1.041,0.208-1.644,0.252-1.965,0.252c-0.543,0-1.34-0.083-2.48-0.36c1.912-0.779,3.72-1.824,5.413-3.13
				c3.556-2.742,6.111-5.908,7.597-9.41c1.455-3.429,2.193-7.088,2.193-10.874c0-7.167-2.366-13.203-7.034-17.941
				C333.146,11.675,326.973,9.269,319.473,9.269L319.473,9.269z M319.506,49.674c-4.123,0-7.347-1.411-9.855-4.314
				c-2.586-2.989-3.842-6.618-3.842-11.095c0-4.376,1.26-7.913,3.851-10.811c2.534-2.833,5.724-4.21,9.749-4.21
				c4.062,0,7.336,1.411,10.012,4.313c2.719,2.95,4.041,6.474,4.041,10.773c0,4.275-1.306,7.843-3.992,10.907
				C326.85,48.223,323.591,49.674,319.506,49.674L319.506,49.674z"/>
		</g>
		<g>
			<path fill="#FFFFFF" d="M360.881,58.423c-2.28,0-4.212-0.519-5.74-1.542c-1.556-1.042-2.608-2.417-3.127-4.087
				c-0.487-1.564-0.725-3.959-0.725-7.321V32.1h-4.424v-7.458h12.561v20.056c0,2.243,0.062,3.753,0.182,4.489
				c0.091,0.558,0.346,1.002,0.779,1.361c0.444,0.368,1.008,0.546,1.723,0.546c2.484,0,5.211-1.191,8.107-3.541V32.1h-5.523v-7.458
				h13.66v25.807h5.395v7.458h-13.531v-2.651C367.017,57.359,363.884,58.423,360.881,58.423z"/>
			<path d="M377.354,25.642v25.807h5.395v5.458h-11.531v-3.585c-3.596,2.734-7.041,4.102-10.336,4.102
				c-2.088,0-3.816-0.458-5.184-1.373s-2.277-2.1-2.729-3.553c-0.453-1.454-0.68-3.795-0.68-7.025V31.1h-4.424v-5.458h10.561v19.056
				c0,2.304,0.064,3.854,0.195,4.651c0.129,0.797,0.504,1.454,1.129,1.97c0.625,0.517,1.41,0.775,2.359,0.775
				c2.842,0,5.877-1.356,9.107-4.07V31.1h-5.523v-5.458H377.354 M379.354,23.642h-2h-11.66h-2v2V31.1v2h2h3.523v13.971
				c-2.572,2.007-4.96,3.023-7.107,3.023c-0.629,0-0.92-0.181-1.084-0.316c-0.25-0.207-0.379-0.43-0.43-0.749
				c-0.078-0.474-0.17-1.605-0.17-4.332V25.642v-2h-2h-10.561h-2v2V31.1v2h2h2.424v12.373c0,3.465,0.252,5.958,0.771,7.62
				c0.587,1.892,1.773,3.447,3.525,4.62c1.695,1.135,3.813,1.71,6.296,1.71c2.709,0,5.502-0.802,8.336-2.389v1.872h2h11.531h2v-2
				v-5.458v-2h-2h-3.395V25.642V23.642L379.354,23.642z"/>
		</g>
		<g>
			<path fill="#FFFFFF" d="M403.127,58.811c-5.008,0-9.354-1.589-12.916-4.722c-3.602-3.166-5.428-7.478-5.428-12.815
				c0-5.066,1.774-9.3,5.272-12.583c3.483-3.266,7.544-4.921,12.071-4.921c4.43,0,8.495,1.611,12.081,4.79
				c3.614,3.205,5.515,7.997,5.649,14.244l0.021,1.021h-26.122c0.472,2.145,1.433,3.88,2.919,5.281
				c1.719,1.621,3.87,2.408,6.58,2.408c3.982,0,7.046-1.555,9.366-4.755l0.474-0.654l7.237,3.188l-0.636,0.985
				c-1.86,2.882-4.315,5.053-7.296,6.451C409.461,58.111,406.34,58.811,403.127,58.811z M411.225,37.367
				c-0.524-1.525-1.468-2.946-2.813-4.237c-1.675-1.605-3.679-2.386-6.124-2.386c-2.214,0-4.053,0.701-5.62,2.142
				c-1.316,1.211-2.19,2.685-2.652,4.481H411.225z"/>
			<path d="M402.127,24.77c4.197,0,8.004,1.513,11.418,4.538c3.412,3.025,5.184,7.531,5.313,13.517h-26.291
				c0.387,2.885,1.527,5.222,3.424,7.009c1.895,1.787,4.316,2.681,7.266,2.681c4.285,0,7.678-1.723,10.176-5.168l5.426,2.39
				c-1.766,2.735-4.059,4.764-6.881,6.088c-2.82,1.324-5.77,1.986-8.85,1.986c-4.779,0-8.865-1.491-12.256-4.473
				c-3.393-2.982-5.088-7.003-5.088-12.064c0-4.801,1.652-8.753,4.957-11.854C394.047,26.32,397.842,24.77,402.127,24.77
				 M392.793,38.367h19.734c-0.432-2.196-1.572-4.183-3.424-5.959c-1.854-1.776-4.125-2.665-6.816-2.665
				c-2.453,0-4.553,0.802-6.297,2.406S393.18,35.827,392.793,38.367 M402.127,22.77c-4.789,0-9.081,1.747-12.755,5.192
				c-3.709,3.479-5.589,7.958-5.589,13.313c0,5.638,1.94,10.202,5.768,13.566c3.75,3.298,8.317,4.971,13.576,4.971
				c3.361,0,6.625-0.732,9.699-2.176c3.153-1.479,5.747-3.772,7.712-6.814l1.271-1.97l-2.146-0.945l-5.426-2.39l-1.479-0.651
				l-0.947,1.307c-2.118,2.921-4.917,4.342-8.557,4.342c-2.442,0-4.37-0.699-5.894-2.136c-1.044-0.984-1.801-2.158-2.287-3.554
				h23.782h2.044l-0.044-2.043c-0.142-6.537-2.155-11.574-5.985-14.971C411.097,24.466,406.809,22.77,402.127,22.77L402.127,22.77z
				 M395.404,36.367c0.447-1.056,1.09-1.964,1.939-2.745c1.375-1.264,2.991-1.878,4.943-1.878c2.175,0,3.952,0.689,5.433,2.108
				c0.837,0.803,1.493,1.637,1.976,2.515H395.404L395.404,36.367z"/>
		</g>
		<g>
			<path fill="#FFFFFF" d="M436.041,58.423c-2.281,0-4.214-0.519-5.742-1.542c-1.554-1.04-2.605-2.415-3.127-4.086
				c-0.486-1.568-0.723-3.963-0.723-7.323V32.1h-4.426v-7.458h12.563v20.056c0,2.24,0.061,3.751,0.181,4.491
				c0.09,0.554,0.345,0.999,0.78,1.359c0.443,0.368,1.006,0.546,1.721,0.546c2.486,0,5.212-1.191,8.107-3.541V32.1h-5.521v-7.458
				h13.658v25.807h5.395v7.458h-13.531v-2.651C442.176,57.359,439.043,58.423,436.041,58.423z"/>
			<path d="M452.512,25.642v25.807h5.395v5.458h-11.531v-3.585c-3.596,2.734-7.041,4.102-10.334,4.102
				c-2.09,0-3.818-0.458-5.186-1.373s-2.275-2.1-2.729-3.553c-0.451-1.454-0.678-3.795-0.678-7.025V31.1h-4.426v-5.458h10.563
				v19.056c0,2.304,0.064,3.854,0.193,4.651c0.129,0.797,0.506,1.454,1.131,1.97c0.623,0.517,1.41,0.775,2.357,0.775
				c2.842,0,5.879-1.356,9.107-4.07V31.1h-5.521v-5.458H452.512 M454.512,23.642h-2h-11.658h-2v2V31.1v2h2h3.521v13.971
				c-2.57,2.007-4.959,3.023-7.107,3.023c-0.629,0-0.918-0.179-1.08-0.314c-0.254-0.209-0.383-0.433-0.434-0.75
				c-0.077-0.473-0.168-1.608-0.168-4.332V25.642v-2h-2h-10.563h-2v2V31.1v2h2h2.426v12.373c0,3.462,0.251,5.954,0.768,7.618
				c0.592,1.897,1.778,3.452,3.526,4.622c1.695,1.135,3.814,1.71,6.298,1.71c2.708,0,5.5-0.802,8.334-2.389v1.872h2h11.531h2v-2
				v-5.458v-2h-2h-3.395V25.642V23.642L454.512,23.642z"/>
		</g>
		<g>
			<path fill="#FFFFFF" d="M478.287,58.811c-5.01,0-9.355-1.589-12.918-4.722c-3.602-3.168-5.428-7.479-5.428-12.815
				c0-5.067,1.774-9.301,5.275-12.583c3.48-3.266,7.541-4.921,12.068-4.921c4.432,0,8.497,1.611,12.081,4.79
				c3.614,3.204,5.515,7.996,5.649,14.244l0.021,1.021h-26.122c0.474,2.145,1.435,3.881,2.92,5.281
				c1.718,1.621,3.87,2.408,6.581,2.408c3.981,0,7.044-1.555,9.364-4.755l0.474-0.654l7.237,3.188l-0.636,0.985
				c-1.86,2.882-4.314,5.052-7.294,6.451C484.621,58.111,481.5,58.811,478.287,58.811z M486.383,37.367
				c-0.524-1.525-1.468-2.946-2.813-4.237c-1.674-1.606-3.676-2.386-6.122-2.386c-2.216,0-4.055,0.701-5.622,2.142
				c-1.316,1.211-2.19,2.685-2.652,4.481H486.383z"/>
			<path d="M477.285,24.77c4.199,0,8.006,1.513,11.418,4.538s5.184,7.531,5.313,13.517h-26.291c0.389,2.885,1.529,5.222,3.424,7.009
				s4.316,2.681,7.268,2.681c4.285,0,7.676-1.723,10.174-5.168l5.426,2.39c-1.766,2.735-4.059,4.764-6.879,6.088
				s-5.771,1.986-8.85,1.986c-4.781,0-8.867-1.491-12.258-4.473s-5.088-7.003-5.088-12.064c0-4.801,1.652-8.753,4.959-11.854
				C469.205,26.32,473,24.77,477.285,24.77 M467.951,38.367h19.734c-0.432-2.196-1.572-4.183-3.424-5.959s-4.123-2.665-6.814-2.665
				c-2.455,0-4.555,0.802-6.299,2.406S468.338,35.827,467.951,38.367 M477.285,22.77c-4.79,0-9.081,1.747-12.753,5.192
				c-3.71,3.478-5.591,7.957-5.591,13.312c0,5.636,1.94,10.2,5.767,13.566c3.751,3.298,8.319,4.971,13.579,4.971
				c3.361,0,6.625-0.732,9.699-2.176c3.152-1.48,5.746-3.772,7.71-6.814l1.271-1.97l-2.146-0.945l-5.426-2.39l-1.479-0.651
				l-0.947,1.307c-2.118,2.921-4.917,4.342-8.555,4.342c-2.443,0-4.372-0.699-5.896-2.136c-1.043-0.983-1.8-2.157-2.285-3.554h23.78
				h2.044l-0.044-2.043c-0.142-6.537-2.155-11.574-5.985-14.971C486.257,24.466,481.969,22.77,477.285,22.77L477.285,22.77z
				 M470.563,36.367c0.447-1.056,1.09-1.964,1.939-2.745c1.375-1.264,2.992-1.878,4.945-1.878c2.176,0,3.951,0.689,5.43,2.108
				c0.838,0.803,1.494,1.637,1.977,2.516H470.563L470.563,36.367z"/>
		</g>
	</g>
</g>
</svg>
